<svg width="20" height="20" viewBox="0 0 20 20" fill="none" xmlns="http://www.w3.org/2000/svg">
<path d="M20 13.9752C19.9991 13.2489 19.9601 12.52 19.952 11.7936C19.943 11.0003 19.9533 10.2067 19.9492 9.41329C19.9455 8.70121 19.8817 7.99445 19.8404 7.28558C19.8209 6.95081 19.8244 6.61616 19.7982 6.28186C19.7891 6.16463 19.778 6.01963 19.7434 5.88811C19.833 5.81951 19.9021 5.72662 19.9372 5.5992C19.9731 5.46904 19.962 5.32552 19.9769 5.19209C19.9911 5.06431 20.0025 4.94009 19.9887 4.81204C19.9674 4.61458 19.961 4.41517 19.9502 4.21704C19.9345 3.92688 19.8728 3.64332 19.8621 3.35324C19.8547 3.15289 19.826 2.94844 19.8092 2.74851C19.791 2.5314 19.7345 2.31824 19.5183 2.22812C19.3263 2.14812 19.0932 2.14812 18.8892 2.14765C18.5983 2.14698 18.3066 2.14605 18.016 2.15902C17.9018 2.16413 17.7742 2.16573 17.6618 2.19198C17.6467 2.1955 17.6322 2.19999 17.6179 2.2048C17.6207 2.143 17.6229 2.08124 17.6236 2.01964C17.6262 1.75272 17.6077 1.4719 17.5903 1.2051C17.5742 0.958733 17.5549 0.660957 17.4312 0.441698C17.3872 0.363807 17.3283 0.306736 17.2607 0.262868C17.0364 -0.0648294 16.3651 0.010093 16.0428 0.00239765C15.7842 -0.00377427 15.5399 0.0328275 15.3395 0.210407C15.1414 0.386072 15.1344 0.650684 15.1116 0.898459C15.0886 1.14866 15.0889 1.41893 15.0863 1.67081C15.0844 1.83964 15.0801 2.01019 15.0792 2.18019C14.9952 2.18773 14.9043 2.17577 14.8229 2.17382C14.6596 2.16988 14.4962 2.17698 14.333 2.17366C14.0755 2.16835 13.8451 2.11542 13.6114 2.17304C13.6135 2.12179 13.6153 2.07062 13.6158 2.01956C13.6184 1.75265 13.5999 1.47182 13.5824 1.20502C13.5664 0.958655 13.5471 0.660879 13.4233 0.44162C13.3793 0.363729 13.3205 0.306658 13.2529 0.26279C13.0286 -0.0649076 12.3573 0.0100149 12.035 0.00231952C11.7764 -0.0038524 11.5321 0.0327494 11.3317 0.210329C11.1336 0.385994 11.1266 0.650606 11.1038 0.898381C11.0807 1.14858 11.0811 1.41885 11.0784 1.67073C11.0767 1.82909 11.0729 1.98894 11.0716 2.14843C10.6789 2.11355 10.2713 2.1546 9.88039 2.18363C9.66258 2.1998 9.44078 2.18765 9.22226 2.19546C9.1287 2.19878 9.02679 2.19257 8.92882 2.20113C8.92812 2.02421 8.92347 1.84647 8.92159 1.67073C8.9189 1.41885 8.91925 1.14858 8.89624 0.898381C8.87343 0.650567 8.8664 0.385994 8.66827 0.210329C8.46792 0.0327494 8.22362 -0.0038524 7.96498 0.00231952C7.64272 0.0100149 6.97138 -0.0649076 6.74708 0.26279C6.67951 0.306658 6.62064 0.363729 6.57665 0.44162C6.4529 0.660879 6.43361 0.958655 6.41755 1.20502C6.40013 1.47178 6.38157 1.75265 6.38423 2.01956C6.38474 2.07062 6.38646 2.12179 6.38857 2.17304C6.15489 2.11538 5.92454 2.16835 5.66708 2.17366C5.50383 2.17698 5.34043 2.16988 5.17715 2.17382C5.09567 2.17577 5.00488 2.18773 4.92082 2.18019C4.91988 2.01019 4.91559 1.83964 4.91375 1.67081C4.91105 1.41893 4.91137 1.14866 4.8884 0.898459C4.86562 0.650645 4.85859 0.386072 4.66047 0.210407C4.46011 0.0328275 4.21582 -0.00377427 3.95718 0.00239765C3.63491 0.010093 2.96354 -0.0648294 2.73928 0.262868C2.67162 0.306736 2.61279 0.363807 2.56885 0.441698C2.4451 0.660957 2.4258 0.958733 2.40971 1.2051C2.39232 1.47186 2.37377 1.75272 2.37639 2.01964C2.37705 2.08124 2.37924 2.143 2.38209 2.2048C2.36783 2.19999 2.35334 2.1955 2.33826 2.19198C2.22584 2.16573 2.09818 2.16413 1.98404 2.15902C1.69341 2.14605 1.40165 2.14698 1.11083 2.14765C0.906727 2.14812 0.673678 2.14812 0.481724 2.22812C0.265511 2.31827 0.208987 2.53144 0.190745 2.74851C0.173987 2.94844 0.145354 3.15293 0.137932 3.35324C0.127229 3.64336 0.0655096 3.92692 0.0497282 4.21704C0.038986 4.41517 0.0325406 4.61462 0.0113295 4.81204C-0.00249873 4.94005 0.00890761 5.06431 0.0231265 5.19209C0.0379703 5.32552 0.0268765 5.46904 0.0628143 5.5992C0.0978927 5.72666 0.166956 5.81955 0.256605 5.88811C0.221917 6.01963 0.210901 6.16463 0.201722 6.28186C0.175589 6.6162 0.179065 6.95081 0.159573 7.28558C0.118283 7.99441 0.054533 8.70118 0.0507829 9.41329C0.0466813 10.2067 0.0569549 11.0003 0.0480485 11.7936C0.0398844 12.52 0.000899732 13.2489 4.03508e-05 13.9752C-0.00187373 15.4461 0.0649627 16.9139 0.0613689 18.3838C0.0606268 18.682 0.0212515 19.0454 0.27723 19.255C0.507427 19.4434 0.826453 19.5108 1.11505 19.5177C1.47943 19.5266 1.84634 19.6095 2.21072 19.6318C2.58908 19.655 2.96764 19.6708 3.34725 19.6852C4.18058 19.7169 5.01484 19.7567 5.84852 19.7568C6.26192 19.7568 6.67197 19.7644 7.08334 19.7243C7.35045 19.6983 7.62694 19.6943 7.8887 19.6348C7.94256 19.6315 7.99631 19.628 8.05026 19.6251C8.44186 19.6042 8.84019 19.6129 9.23218 19.6079C9.61281 19.6031 10.0028 19.6378 10.3821 19.6582C10.8016 19.6808 11.231 19.6654 11.6511 19.6611C11.9702 19.6579 12.2898 19.6963 12.6085 19.6999C12.7117 19.7076 12.8149 19.7144 12.9167 19.7243C13.3281 19.7644 13.7381 19.7568 14.1515 19.7568C14.9852 19.7567 15.8195 19.7169 16.6528 19.6852C17.0324 19.6708 17.411 19.655 17.7893 19.6318C18.1537 19.6095 18.5206 19.5266 18.885 19.5177C19.1736 19.5108 19.4927 19.4434 19.7228 19.255C19.9788 19.0454 19.9394 18.682 19.9387 18.3838C19.935 16.9139 20.0018 15.4461 20 13.9752ZM15.5316 0.622285C15.5666 0.485722 15.6836 0.425252 15.8113 0.401737C16.1274 0.439042 16.4505 0.436229 16.7664 0.466933C16.8826 0.478261 17.0348 0.493808 17.1124 0.590215C17.179 0.673028 17.1925 0.804943 17.213 0.905491C17.2647 1.15975 17.2498 1.40436 17.2689 1.65991C17.2975 2.04109 17.2535 2.4105 17.2579 2.7898C17.2625 3.19633 17.2795 3.66157 17.1314 4.0486C17.056 4.24556 16.7962 4.24993 16.613 4.27474C16.4068 4.30263 16.2144 4.31911 16.0057 4.31712C15.8815 4.31591 15.7583 4.33165 15.6794 4.2245C15.6324 4.16055 15.5986 4.02536 15.5788 3.9477C15.5429 3.80665 15.515 3.64352 15.5158 3.49899C15.5177 3.12195 15.4678 2.7441 15.4687 2.36788C15.4695 1.98831 15.4898 1.60975 15.4939 1.23104C15.496 1.03475 15.4826 0.813888 15.5316 0.622285ZM11.5239 0.622285C11.5588 0.485722 11.6758 0.425252 11.8035 0.401737C12.1196 0.439042 12.4427 0.436229 12.7586 0.466933C12.8749 0.478261 13.0271 0.493808 13.1046 0.590215C13.1713 0.673028 13.1848 0.804943 13.2052 0.905491C13.257 1.15975 13.242 1.40436 13.2612 1.65991C13.2897 2.04109 13.2458 2.4105 13.2501 2.7898C13.2548 3.19633 13.2717 3.66157 13.1236 4.0486C13.0482 4.24556 12.7885 4.24993 12.6052 4.27474C12.399 4.30263 12.2067 4.31911 11.9979 4.31712C11.8737 4.31591 11.7505 4.33165 11.6716 4.2245C11.6246 4.16055 11.5908 4.02536 11.5709 3.9477C11.535 3.80665 11.5072 3.64352 11.508 3.49899C11.5099 3.12195 11.46 2.7441 11.4608 2.36788C11.4617 1.98831 11.4819 1.60975 11.4861 1.23104C11.4882 1.03475 11.4749 0.813888 11.5239 0.622285ZM6.73865 1.65991C6.75775 1.4044 6.74283 1.15975 6.79459 0.905491C6.81505 0.804943 6.82853 0.673028 6.89521 0.590215C6.97279 0.493808 7.12502 0.478261 7.24119 0.466933C7.55709 0.436229 7.88022 0.439042 8.19631 0.401737C8.32405 0.425292 8.44104 0.485722 8.47597 0.622285C8.52499 0.813888 8.51163 1.03475 8.51378 1.231C8.51788 1.60968 8.53819 1.98827 8.53897 2.36785C8.53979 2.74406 8.48995 3.12191 8.49186 3.49895C8.49261 3.64348 8.46483 3.80661 8.42885 3.94766C8.40905 4.02532 8.3753 4.16052 8.32827 4.22446C8.24936 4.33161 8.12608 4.31587 8.00194 4.31708C7.79319 4.31907 7.60084 4.30259 7.39467 4.2747C7.21142 4.24989 6.95162 4.24552 6.87627 4.04856C6.72814 3.66157 6.74513 3.19633 6.74982 2.78976C6.75404 2.41046 6.71009 2.04105 6.73865 1.65991ZM2.73084 1.65991C2.74994 1.4044 2.73502 1.15975 2.78682 0.905491C2.80729 0.804943 2.82073 0.673028 2.88741 0.590215C2.96502 0.493808 3.11725 0.478261 3.23342 0.466933C3.54929 0.436229 3.87245 0.439042 4.18851 0.401737C4.31628 0.425292 4.43324 0.485722 4.46816 0.622285C4.51722 0.813888 4.50379 1.03475 4.50597 1.231C4.51011 1.60968 4.53039 1.98827 4.53121 2.36785C4.53203 2.74406 4.48215 3.12191 4.48406 3.49895C4.48484 3.64348 4.45699 3.80661 4.42105 3.94766C4.40129 4.02532 4.3675 4.16052 4.32046 4.22446C4.2416 4.33161 4.11831 4.31587 3.99413 4.31708C3.78546 4.31907 3.59311 4.30259 3.3869 4.2747C3.20366 4.24989 2.94385 4.24552 2.8685 4.04856C2.72041 3.66157 2.73737 3.19633 2.74201 2.78976C2.74631 2.41046 2.70237 2.04105 2.73084 1.65991ZM19.4206 18.8823C19.3469 18.9717 19.1328 19.0186 19.0214 19.0344C18.6908 19.0811 18.3498 19.0781 18.0174 19.1211C17.3232 19.2106 16.617 19.1809 15.9188 19.2343C15.5868 19.2597 15.2534 19.2198 14.9213 19.231C14.6493 19.2402 14.3792 19.2512 14.1076 19.2562C13.9837 19.2447 13.8602 19.2351 13.7393 19.2238C13.3758 19.1898 13.0164 19.1732 12.6497 19.1795C12.3188 19.1853 11.9835 19.1398 11.651 19.1448C11.2259 19.1511 10.7837 19.1777 10.3598 19.1455C9.96387 19.1154 9.54894 19.1015 9.15171 19.1153C8.76433 19.1289 8.36788 19.1225 7.98213 19.1607C7.78369 19.1804 7.58565 19.2055 7.3874 19.2282C6.9713 19.2292 6.55259 19.26 6.1381 19.259C5.78321 19.2582 5.4325 19.243 5.07852 19.231C4.74641 19.2198 4.413 19.2597 4.08101 19.2343C3.38276 19.181 2.67666 19.2107 1.98244 19.1211C1.65005 19.0782 1.30896 19.0811 0.978368 19.0344C0.867039 19.0186 0.652897 18.9718 0.579185 18.8823C0.500279 18.7867 0.542115 18.5402 0.541841 18.4248C0.538482 17.055 0.467622 15.6879 0.465981 14.3175C0.46438 12.9234 0.508833 11.5308 0.507349 10.1351C0.506529 9.37517 0.523833 8.61715 0.567701 7.85984C0.589928 7.47558 0.55067 7.08616 0.576998 6.70257C0.588248 6.53897 0.580084 6.38198 0.583951 6.21924C0.585084 6.171 0.574576 6.09998 0.56692 6.0285C0.783796 6.08389 1.02841 6.08932 1.22146 6.10549C1.72126 6.14745 2.21178 6.18608 2.71506 6.15514C3.82167 6.08701 4.935 6.18084 6.04356 6.14428C6.65423 6.12412 7.26517 6.11612 7.87737 6.11924C8.60671 6.12299 9.33597 6.10627 10.065 6.09123C10.4257 6.08385 10.7864 6.07682 11.1471 6.07287C11.4723 6.06932 11.795 6.12088 12.1224 6.11924C12.7346 6.11612 13.3456 6.12412 13.9562 6.14428C15.0648 6.18088 16.1781 6.08701 17.2847 6.15514C17.788 6.18612 18.2785 6.14748 18.7783 6.10549C18.9713 6.08932 19.2159 6.08389 19.4328 6.0285C19.4252 6.09998 19.4147 6.17096 19.4158 6.21924C19.4197 6.38198 19.4115 6.53901 19.4227 6.70257C19.4491 7.08616 19.4098 7.47558 19.4321 7.85984C19.4759 8.61715 19.4932 9.37517 19.4924 10.1351C19.4909 11.5308 19.5354 12.9235 19.5338 14.3175C19.5321 15.688 19.4613 17.055 19.4579 18.4248C19.4577 18.5402 19.4995 18.7867 19.4206 18.8823ZM19.5305 5.13169C19.5214 5.22865 19.5343 5.38928 19.5 5.47873C19.4406 5.63385 19.0747 5.63143 18.9363 5.64654C18.5199 5.69205 18.0911 5.73811 17.6715 5.72225C17.2293 5.70561 16.7942 5.67572 16.3508 5.67439C15.8345 5.67287 15.3184 5.67334 14.8021 5.67576C14.1248 5.67904 13.4339 5.6708 12.7583 5.62447C12.0226 5.57393 11.3036 5.51174 10.5684 5.58697C9.26523 5.72029 7.93834 5.6374 6.6304 5.64291C6.15278 5.64498 5.67665 5.67811 5.19762 5.6758C4.68137 5.67334 4.16515 5.67291 3.64894 5.67443C3.20557 5.67572 2.77049 5.70565 2.32826 5.72229C1.90865 5.73814 1.47978 5.69213 1.06337 5.64658C0.924969 5.63146 0.559068 5.63389 0.499693 5.47877C0.465435 5.38931 0.478325 5.22873 0.469263 5.13173C0.457114 5.00107 0.464067 4.88134 0.477505 4.7515C0.49438 4.5879 0.495279 4.4206 0.504224 4.25641C0.51774 4.00833 0.582232 3.76551 0.596881 3.51813C0.610787 3.28391 0.633756 3.05121 0.645905 2.81715C0.652077 2.69808 0.647389 2.66265 0.754616 2.63242C0.86868 2.60031 0.993642 2.60793 1.11067 2.6073C1.40173 2.60586 1.69294 2.60761 1.98388 2.59605C2.11865 2.59066 2.26178 2.58355 2.39971 2.56586C2.40303 2.65375 2.40463 2.74152 2.40178 2.82886C2.39287 3.09863 2.38799 3.37117 2.42635 3.63911C2.45963 3.87157 2.4749 4.16388 2.61881 4.35978C2.73569 4.51896 2.94315 4.57275 3.12745 4.61083C3.40018 4.66708 3.67124 4.69642 3.94933 4.69724C4.18581 4.69786 4.42449 4.70599 4.58957 4.51196C4.73461 4.34149 4.78391 4.08602 4.82059 3.87348C4.85879 3.65223 4.85797 3.43977 4.87965 3.2175C4.89801 3.02918 4.90672 2.83472 4.91293 2.64289C5.12328 2.66312 5.36 2.6273 5.55106 2.62644C5.74426 2.62566 5.94458 2.61675 6.1352 2.58593C6.22235 2.57183 6.31735 2.57367 6.40732 2.56132C6.41079 2.6507 6.41251 2.73996 6.40962 2.82886C6.40075 3.09863 6.39583 3.37117 6.43419 3.63911C6.46747 3.87157 6.48279 4.16388 6.62662 4.35978C6.74353 4.51896 6.95095 4.57275 7.13529 4.61083C7.40803 4.66708 7.67905 4.69642 7.95713 4.69724C8.19362 4.69786 8.43233 4.70599 8.59745 4.51196C8.74249 4.34149 8.79175 4.08602 8.82839 3.87348C8.86663 3.65223 8.86581 3.43977 8.88745 3.2175C8.908 3.00664 8.91648 2.7884 8.92273 2.57441C9.00331 2.59074 9.0864 2.59668 9.17871 2.60089C9.40914 2.61136 9.65004 2.63074 9.88027 2.61621C10.0665 2.60441 10.2523 2.59668 10.4384 2.58296C10.6506 2.56734 10.8648 2.595 11.0771 2.57711C11.0834 2.79019 11.0919 3.00754 11.1124 3.21754C11.134 3.43981 11.1332 3.65227 11.1714 3.87352C11.2081 4.08602 11.2573 4.34149 11.4024 4.512C11.5675 4.70603 11.8062 4.6979 12.0426 4.69728C12.3207 4.69646 12.5917 4.66716 12.8645 4.61087C13.0489 4.57278 13.2563 4.519 13.3732 4.35981C13.517 4.16388 13.5323 3.87161 13.5656 3.63914C13.6039 3.37121 13.599 3.09867 13.5902 2.8289C13.5873 2.74004 13.589 2.65074 13.5924 2.56136C13.6825 2.57367 13.7774 2.57187 13.8646 2.58597C14.0552 2.61679 14.2555 2.62574 14.4487 2.62648C14.6398 2.6273 14.8765 2.66312 15.0869 2.64293C15.093 2.83476 15.1018 3.02922 15.1202 3.21754C15.1418 3.43981 15.141 3.65227 15.1792 3.87352C15.2159 4.08602 15.2652 4.34149 15.4102 4.512C15.5753 4.70603 15.814 4.6979 16.0505 4.69728C16.3286 4.69646 16.5996 4.66716 16.8723 4.61087C17.0567 4.57278 17.2641 4.519 17.381 4.35981C17.5249 4.16388 17.5401 3.87161 17.5734 3.63914C17.6118 3.37121 17.6069 3.09867 17.598 2.8289C17.5952 2.74156 17.5968 2.65379 17.6001 2.56589C17.738 2.58359 17.8811 2.59074 18.0159 2.59609C18.3069 2.60765 18.5981 2.60589 18.8891 2.60734C19.0062 2.60796 19.1311 2.60031 19.2452 2.63246C19.3525 2.66265 19.3477 2.69812 19.3539 2.81718C19.366 3.05125 19.389 3.28395 19.4029 3.51817C19.4176 3.76555 19.4821 4.00841 19.4956 4.25645C19.5045 4.42063 19.5054 4.5879 19.5223 4.75154C19.5357 4.88126 19.5426 5.00103 19.5305 5.13169Z" fill="#E0A652"/>
<path d="M3.66348 7.38801C3.60965 7.25313 3.47551 7.18063 3.34215 7.14075C2.96976 7.02926 2.56351 7.04352 2.17995 7.0402C2.04468 7.03907 1.87382 6.98696 1.75553 7.07133C1.35096 7.36005 1.47432 8.42837 1.48788 8.85404C1.49342 9.02592 1.5203 9.20229 1.66936 9.31026C1.69503 9.32889 1.72018 9.34311 1.74507 9.3542C1.74842 9.35596 1.75116 9.35819 1.75456 9.35987C2.15651 9.56088 2.62902 9.5037 3.06152 9.50674C3.34871 9.50873 3.51305 9.43959 3.57375 9.14838C3.66059 8.73158 3.64106 8.32095 3.65926 7.89935C3.66629 7.7377 3.72571 7.54419 3.66348 7.38801ZM3.37977 7.73063C3.37164 7.84196 3.36434 7.94915 3.3648 8.06114C3.36559 8.25615 3.36859 8.44841 3.35 8.64224C3.33656 8.78213 3.3648 9.02064 3.30445 9.14674C3.27258 9.21334 3.29164 9.21819 3.21 9.2426C3.1389 9.26385 3.04453 9.25119 2.97258 9.25143C2.77101 9.25213 2.56628 9.2669 2.36511 9.26076C2.24347 9.25705 2.06604 9.23494 1.9362 9.16998C1.85264 9.10815 1.79835 9.02643 1.79202 8.88803C1.7835 8.70256 1.78428 8.52048 1.80288 8.33607C1.82311 8.13568 1.82409 7.93314 1.85444 7.73364C1.86557 7.66071 1.87534 7.58653 1.89272 7.51489C1.89815 7.46618 1.91202 7.41993 1.93429 7.37626C1.93897 7.36907 1.94272 7.36313 1.94589 7.35774C2.10831 7.34794 2.28573 7.36993 2.44929 7.36708C2.63312 7.36395 2.80445 7.36813 2.9873 7.39188C3.10523 7.40719 3.33934 7.39196 3.39059 7.52485C3.40867 7.57161 3.38363 7.67798 3.37977 7.73063Z" fill="#E0A652"/>
<path d="M6.59021 7.38801C6.53638 7.25313 6.40228 7.18063 6.26892 7.14075C5.89649 7.02926 5.49028 7.04352 5.10672 7.0402C4.97149 7.03907 4.80059 6.98696 4.6823 7.07133C4.27769 7.36005 4.40109 8.42837 4.41465 8.85404C4.42019 9.02592 4.44703 9.20229 4.59617 9.31026C4.6218 9.32889 4.64695 9.34311 4.67187 9.3542C4.67515 9.35596 4.67793 9.35819 4.68133 9.35987C5.08324 9.56088 5.55579 9.5037 5.98825 9.50674C6.27548 9.50873 6.43986 9.43959 6.50048 9.14838C6.58736 8.73158 6.56783 8.32095 6.58603 7.89935C6.5931 7.7377 6.65251 7.54419 6.59021 7.38801ZM6.30657 7.73063C6.29841 7.84196 6.2911 7.94915 6.29157 8.06114C6.29235 8.25615 6.29536 8.44841 6.27677 8.64224C6.26337 8.78213 6.29157 9.02064 6.23126 9.14674C6.19939 9.21334 6.21841 9.21819 6.13673 9.2426C6.06563 9.26385 5.97126 9.25119 5.89934 9.25143C5.69774 9.25213 5.49305 9.2669 5.29184 9.26076C5.17024 9.25705 4.99277 9.23494 4.86293 9.16998C4.77937 9.10815 4.72516 9.02643 4.71875 8.88803C4.71023 8.70256 4.71101 8.52048 4.72961 8.33607C4.74988 8.13568 4.75086 7.93314 4.78121 7.73364C4.7923 7.66071 4.80211 7.58653 4.81953 7.51489C4.82492 7.46618 4.83875 7.41993 4.86109 7.37626C4.8657 7.36907 4.86949 7.36313 4.8727 7.35774C5.03504 7.34794 5.2125 7.36993 5.37602 7.36708C5.55989 7.36395 5.73118 7.36813 5.91407 7.39188C6.032 7.40719 6.26607 7.39196 6.31732 7.52485C6.3354 7.57161 6.31036 7.67798 6.30657 7.73063Z" fill="#E0A652"/>
<path d="M9.51672 7.38801C9.46293 7.25313 9.32879 7.18063 9.19543 7.14075C8.82305 7.02926 8.41676 7.04352 8.03324 7.0402C7.89796 7.03907 7.72706 6.98696 7.60878 7.07133C7.20421 7.36005 7.32761 8.42837 7.34116 8.85404C7.34671 9.02592 7.37354 9.20229 7.52265 9.31026C7.54831 9.32889 7.57347 9.34311 7.59835 9.3542C7.60167 9.35596 7.60444 9.35819 7.6078 9.35987C8.0098 9.56088 8.4823 9.5037 8.91481 9.50674C9.202 9.50873 9.36633 9.43959 9.427 9.14838C9.51387 8.73158 9.49434 8.32095 9.51254 7.89935C9.51958 7.7377 9.57899 7.54419 9.51672 7.38801ZM9.23305 7.73063C9.22489 7.84196 9.21762 7.94915 9.21809 8.06114C9.21883 8.25615 9.22184 8.44841 9.20328 8.64224C9.18985 8.78213 9.21809 9.02064 9.15774 9.14674C9.12586 9.21334 9.14492 9.21819 9.06324 9.2426C8.99215 9.26385 8.89777 9.25119 8.82582 9.25143C8.62426 9.25213 8.41953 9.2669 8.21836 9.26076C8.09671 9.25705 7.91929 9.23494 7.78945 9.16998C7.70593 9.10815 7.65163 9.02643 7.64523 8.88803C7.63675 8.70256 7.63749 8.52048 7.65612 8.33607C7.6764 8.13568 7.67734 7.93314 7.70773 7.73364C7.71882 7.66071 7.72862 7.58653 7.74601 7.51489C7.75144 7.46618 7.7653 7.41993 7.78757 7.37626C7.79222 7.36907 7.79597 7.36313 7.79917 7.35774C7.9616 7.34794 8.13898 7.36993 8.30257 7.36708C8.48637 7.36395 8.65773 7.36813 8.84059 7.39188C8.95848 7.40719 9.19254 7.39196 9.24387 7.52485C9.26196 7.57161 9.23684 7.67798 9.23305 7.73063Z" fill="#E0A652"/>
<path d="M12.4433 7.38801C12.3894 7.25313 12.2553 7.18063 12.1219 7.14075C11.7495 7.02926 11.3433 7.04352 10.9598 7.0402C10.8245 7.03907 10.6536 6.98696 10.5353 7.07133C10.1307 7.36005 10.2541 8.42837 10.2677 8.85404C10.2733 9.02592 10.3001 9.20229 10.4492 9.31026C10.4749 9.32889 10.5 9.34311 10.5249 9.3542C10.5282 9.35596 10.5309 9.35819 10.5343 9.35987C10.9363 9.56088 11.4088 9.5037 11.8413 9.50674C12.1285 9.50873 12.2928 9.43959 12.3535 9.14838C12.4403 8.73158 12.4208 8.32095 12.4391 7.89935C12.4461 7.7377 12.5055 7.54419 12.4433 7.38801ZM12.1596 7.73063C12.1515 7.84196 12.1442 7.94915 12.1446 8.06114C12.1454 8.25615 12.1484 8.44841 12.1298 8.64224C12.1164 8.78213 12.1447 9.02064 12.0843 9.14674C12.0524 9.21334 12.0715 9.21819 11.9898 9.2426C11.9187 9.26385 11.8243 9.25119 11.7524 9.25143C11.5508 9.25213 11.3461 9.2669 11.1449 9.26076C11.0233 9.25705 10.8458 9.23494 10.716 9.16998C10.6324 9.10815 10.5782 9.02643 10.5718 8.88803C10.5633 8.70256 10.564 8.52048 10.5827 8.33607C10.6029 8.13568 10.6039 7.93314 10.6343 7.73364C10.6454 7.66071 10.6551 7.58653 10.6726 7.51489C10.678 7.46618 10.6918 7.41993 10.7141 7.37626C10.7188 7.36907 10.7226 7.36313 10.7257 7.35774C10.8881 7.34794 11.0655 7.36993 11.2291 7.36708C11.4129 7.36395 11.5842 7.36813 11.7671 7.39188C11.8851 7.40719 12.1191 7.39196 12.1704 7.52485C12.1885 7.57161 12.1634 7.67798 12.1596 7.73063Z" fill="#E0A652"/>
<path d="M15.37 7.38801C15.3162 7.25313 15.1821 7.18063 15.0486 7.14075C14.6763 7.02926 14.27 7.04352 13.8865 7.0402C13.7512 7.03907 13.5803 6.98696 13.4621 7.07133C13.0575 7.36005 13.1809 8.42837 13.1944 8.85404C13.2 9.02592 13.2268 9.20229 13.3759 9.31026C13.4015 9.32889 13.4267 9.34311 13.4516 9.3542C13.4549 9.35596 13.4576 9.35819 13.4611 9.35987C13.8631 9.56088 14.3356 9.5037 14.7681 9.50674C15.0553 9.50873 15.2196 9.43959 15.2803 9.14838C15.3671 8.73158 15.3475 8.32095 15.3658 7.89935C15.3728 7.7377 15.4323 7.54419 15.37 7.38801ZM15.0863 7.73063C15.0782 7.84196 15.0709 7.94915 15.0714 8.06114C15.0721 8.25615 15.0751 8.44841 15.0566 8.64224C15.0431 8.78213 15.0714 9.02064 15.011 9.14674C14.9791 9.21334 14.9982 9.21819 14.9165 9.2426C14.8454 9.26385 14.751 9.25119 14.6791 9.25143C14.4775 9.25213 14.2728 9.2669 14.0716 9.26076C13.95 9.25705 13.7726 9.23494 13.6427 9.16998C13.5591 9.10815 13.5049 9.02643 13.4985 8.88803C13.49 8.70256 13.4907 8.52048 13.5094 8.33607C13.5297 8.13568 13.5306 7.93314 13.561 7.73364C13.5721 7.66071 13.5819 7.58653 13.5993 7.51489C13.6047 7.46618 13.6185 7.41993 13.6408 7.37626C13.6455 7.36907 13.6492 7.36313 13.6524 7.35774C13.8149 7.34794 13.9923 7.36993 14.1558 7.36708C14.3396 7.36395 14.511 7.36813 14.6939 7.39188C14.8117 7.40719 15.0458 7.39196 15.0971 7.52485C15.1152 7.57161 15.0901 7.67798 15.0863 7.73063Z" fill="#E0A652"/>
<path d="M18.2968 7.38801C18.2429 7.25313 18.1088 7.18063 17.9754 7.14075C17.603 7.02926 17.1968 7.04352 16.8133 7.0402C16.678 7.03907 16.5071 6.98696 16.3888 7.07133C15.9842 7.36005 16.1076 8.42837 16.1212 8.85404C16.1267 9.02592 16.1535 9.20229 16.3026 9.31026C16.3283 9.32889 16.3535 9.34311 16.3783 9.3542C16.3817 9.35596 16.3844 9.35819 16.3879 9.35987C16.7898 9.56088 17.2623 9.5037 17.6948 9.50674C17.982 9.50873 18.1464 9.43959 18.207 9.14838C18.2939 8.73158 18.2743 8.32095 18.2926 7.89935C18.2996 7.7377 18.359 7.54419 18.2968 7.38801ZM18.013 7.73063C18.005 7.84196 17.9977 7.94915 17.9981 8.06114C17.9989 8.25615 18.0019 8.44841 17.9833 8.64224C17.9698 8.78213 17.9981 9.02064 17.9378 9.14674C17.9059 9.21334 17.925 9.21819 17.8433 9.2426C17.7722 9.26385 17.6778 9.25119 17.6059 9.25143C17.4043 9.25213 17.1996 9.2669 16.9984 9.26076C16.8768 9.25705 16.6993 9.23494 16.5695 9.16998C16.4859 9.10815 16.4316 9.02643 16.4253 8.88803C16.4168 8.70256 16.4175 8.52048 16.4362 8.33607C16.4564 8.13568 16.4574 7.93314 16.4877 7.73364C16.4988 7.66071 16.5086 7.58653 16.526 7.51489C16.5315 7.46618 16.5453 7.41993 16.5676 7.37626C16.5722 7.36907 16.576 7.36313 16.5792 7.35774C16.7416 7.34794 16.919 7.36993 17.0826 7.36708C17.2664 7.36395 17.4377 7.36813 17.6206 7.39188C17.7385 7.40719 17.9726 7.39196 18.0239 7.52485C18.0419 7.57161 18.0169 7.67798 18.013 7.73063Z" fill="#E0A652"/>
<path d="M3.68521 10.313C3.63138 10.1781 3.49724 10.1057 3.36388 10.0658C2.99149 9.95428 2.58524 9.9685 2.20172 9.96522C2.06644 9.96409 1.89558 9.9119 1.77726 9.99635C1.37269 10.285 1.49605 11.3533 1.5096 11.779C1.51519 11.9509 1.54203 12.1273 1.69109 12.2352C1.71679 12.2538 1.74191 12.2681 1.76679 12.2791C1.77015 12.2809 1.77289 12.2831 1.77629 12.2848C2.17824 12.4859 2.65075 12.4287 3.08325 12.4317C3.37044 12.4337 3.53482 12.3646 3.59548 12.0734C3.68232 11.6566 3.66279 11.2459 3.68099 10.8244C3.68802 10.6627 3.74747 10.4692 3.68521 10.313ZM3.40149 10.6557C3.39337 10.7669 3.38606 10.8742 3.38653 10.9861C3.38731 11.1812 3.39036 11.3734 3.37173 11.5672C3.35829 11.7071 3.38653 11.9457 3.32622 12.0717C3.29434 12.1383 3.31341 12.1432 3.23173 12.1676C3.16063 12.1889 3.06626 12.1762 2.9943 12.1764C2.79274 12.1771 2.58801 12.1919 2.38684 12.1857C2.2652 12.182 2.08777 12.1599 1.95793 12.095C1.87437 12.0332 1.82008 11.9514 1.81375 11.813C1.80523 11.6275 1.80597 11.4454 1.82461 11.2611C1.84488 11.0607 1.84582 10.8581 1.87617 10.6586C1.8873 10.5857 1.89707 10.5116 1.91449 10.4399C1.91988 10.3912 1.93375 10.3449 1.95601 10.3012C1.9607 10.2941 1.96445 10.2881 1.96762 10.2827C2.13004 10.273 2.30746 10.2949 2.47102 10.2921C2.65489 10.2889 2.82618 10.2932 3.00903 10.3169C3.12696 10.3322 3.36106 10.317 3.41231 10.4498C3.4304 10.4966 3.40536 10.603 3.40149 10.6557Z" fill="#E0A652"/>
<path d="M6.61149 10.313C6.55762 10.1781 6.42348 10.1057 6.29012 10.0658C5.91773 9.95428 5.51152 9.9685 5.12796 9.96522C4.99269 9.96409 4.82183 9.9119 4.70351 9.99635C4.29893 10.285 4.42233 11.3533 4.43589 11.779C4.44147 11.9509 4.46827 12.1273 4.61737 12.2352C4.64304 12.2538 4.66816 12.2681 4.69308 12.2791C4.6964 12.2809 4.69913 12.2831 4.70257 12.2848C5.10453 12.4859 5.57703 12.4287 6.00949 12.4317C6.29676 12.4337 6.46106 12.3646 6.52172 12.0734C6.6086 11.6566 6.58903 11.2459 6.60727 10.8244C6.6143 10.6627 6.67376 10.4692 6.61149 10.313ZM6.32778 10.6557C6.31965 10.7669 6.31235 10.8742 6.31278 10.9861C6.31356 11.1812 6.3166 11.3734 6.29801 11.5672C6.28457 11.7071 6.31282 11.9457 6.25246 12.0717C6.22063 12.1383 6.23969 12.1432 6.15797 12.1676C6.08688 12.1889 5.9925 12.1762 5.92055 12.1764C5.71898 12.1771 5.51429 12.1919 5.31308 12.1857C5.19148 12.182 5.01402 12.1599 4.88417 12.095C4.80062 12.0332 4.74636 11.9514 4.73999 11.813C4.73148 11.6275 4.73222 11.4454 4.75085 11.2611C4.77116 11.0607 4.77206 10.8581 4.80245 10.6586C4.81355 10.5857 4.82335 10.5116 4.84077 10.4399C4.84616 10.3912 4.85999 10.3449 4.8823 10.3012C4.88698 10.2941 4.89073 10.2881 4.89394 10.2827C5.05628 10.273 5.23375 10.2949 5.3973 10.2921C5.58113 10.2889 5.75242 10.2932 5.93531 10.3169C6.05324 10.3322 6.28731 10.317 6.3386 10.4498C6.35664 10.4966 6.33161 10.603 6.32778 10.6557Z" fill="#E0A652"/>
<path d="M9.53821 10.313C9.48442 10.1781 9.35028 10.1057 9.21692 10.0658C8.84453 9.95428 8.43828 9.9685 8.05472 9.96522C7.91944 9.96409 7.74858 9.9119 7.6303 9.99635C7.22569 10.285 7.34909 11.3533 7.36264 11.779C7.36819 11.9509 7.39499 12.1273 7.54413 12.2352C7.56979 12.2538 7.59495 12.2681 7.61983 12.2791C7.62319 12.2809 7.62593 12.2831 7.62929 12.2848C8.03128 12.4859 8.50378 12.4287 8.93629 12.4317C9.22348 12.4337 9.38781 12.3646 9.44852 12.0734C9.53536 11.6566 9.51582 11.2459 9.53403 10.8244C9.54106 10.6627 9.60051 10.4692 9.53821 10.313ZM9.25453 10.6557C9.24637 10.7669 9.2391 10.8742 9.23957 10.9861C9.24035 11.1812 9.24336 11.3734 9.22477 11.5672C9.21133 11.7071 9.23957 11.9457 9.17922 12.0717C9.14734 12.1383 9.16641 12.1432 9.08473 12.1676C9.01363 12.1889 8.91926 12.1762 8.84734 12.1764C8.64574 12.1771 8.44105 12.1919 8.23984 12.1857C8.1182 12.182 7.94077 12.1599 7.81097 12.095C7.72741 12.0332 7.67311 11.9514 7.66675 11.813C7.65823 11.6275 7.65897 11.4454 7.67761 11.2611C7.69788 11.0607 7.69886 10.8581 7.72921 10.6586C7.74034 10.5857 7.75011 10.5116 7.76753 10.4399C7.77292 10.3912 7.78679 10.3449 7.80905 10.3012C7.8137 10.2941 7.81745 10.2881 7.82065 10.2827C7.98308 10.273 8.16046 10.2949 8.32406 10.2921C8.50785 10.2889 8.67922 10.2932 8.86207 10.3169C8.98 10.3322 9.21406 10.317 9.26535 10.4498C9.28344 10.4966 9.25836 10.603 9.25453 10.6557Z" fill="#E0A652"/>
<path d="M12.465 10.313C12.4112 10.1781 12.277 10.1057 12.1436 10.0658C11.7712 9.95428 11.365 9.9685 10.9815 9.96522C10.8462 9.96409 10.6753 9.9119 10.557 9.99635C10.1524 10.285 10.2758 11.3533 10.2894 11.779C10.295 11.9509 10.3217 12.1273 10.4709 12.2352C10.4965 12.2538 10.5217 12.2681 10.5466 12.2791C10.5499 12.2809 10.5526 12.2831 10.556 12.2848C10.958 12.4859 11.4305 12.4287 11.863 12.4317C12.1503 12.4337 12.3145 12.3646 12.3752 12.0734C12.4621 11.6566 12.4425 11.2459 12.4608 10.8244C12.4678 10.6627 12.5273 10.4692 12.465 10.313ZM12.1812 10.6557C12.1731 10.7669 12.1659 10.8742 12.1663 10.9861C12.1671 11.1812 12.1701 11.3734 12.1515 11.5672C12.1381 11.7071 12.1664 11.9457 12.106 12.0717C12.0741 12.1383 12.0932 12.1432 12.0115 12.1676C11.9404 12.1889 11.846 12.1762 11.7741 12.1764C11.5725 12.1771 11.3678 12.1919 11.1666 12.1857C11.0449 12.182 10.8675 12.1599 10.7377 12.095C10.6541 12.0332 10.5998 11.9514 10.5935 11.813C10.585 11.6275 10.5857 11.4454 10.6044 11.2611C10.6247 11.0607 10.6256 10.8581 10.6559 10.6586C10.6671 10.5857 10.6768 10.5116 10.6943 10.4399C10.6997 10.3912 10.7135 10.3449 10.7358 10.3012C10.7405 10.2941 10.7442 10.2881 10.7474 10.2827C10.9099 10.273 11.0872 10.2949 11.2508 10.2921C11.4346 10.2889 11.606 10.2932 11.7888 10.3169C11.9068 10.3322 12.1408 10.317 12.1921 10.4498C12.2102 10.4966 12.1851 10.603 12.1812 10.6557Z" fill="#E0A652"/>
<path d="M15.3917 10.313C15.3379 10.1781 15.2038 10.1057 15.0704 10.0658C14.698 9.95428 14.2918 9.9685 13.9082 9.96522C13.773 9.96409 13.6021 9.9119 13.4838 9.99635C13.0792 10.285 13.2026 11.3533 13.2162 11.779C13.2217 11.9509 13.2485 12.1273 13.3976 12.2352C13.4233 12.2538 13.4485 12.2681 13.4734 12.2791C13.4767 12.2809 13.4794 12.2831 13.4828 12.2848C13.8848 12.4859 14.3573 12.4287 14.7898 12.4317C15.077 12.4337 15.2413 12.3646 15.302 12.0734C15.3889 11.6566 15.3693 11.2459 15.3875 10.8244C15.3946 10.6627 15.454 10.4692 15.3917 10.313ZM15.1081 10.6557C15.0999 10.7669 15.0926 10.8742 15.0931 10.9861C15.0938 11.1812 15.0968 11.3734 15.0783 11.5672C15.0648 11.7071 15.0931 11.9457 15.0327 12.0717C15.0009 12.1383 15.0199 12.1432 14.9382 12.1676C14.8672 12.1889 14.7728 12.1762 14.7008 12.1764C14.4993 12.1771 14.2946 12.1919 14.0934 12.1857C13.9717 12.182 13.7943 12.1599 13.6645 12.095C13.5809 12.0332 13.5266 11.9514 13.5202 11.813C13.5117 11.6275 13.5125 11.4454 13.5311 11.2611C13.5514 11.0607 13.5523 10.8581 13.5827 10.6586C13.5938 10.5857 13.6036 10.5116 13.621 10.4399C13.6264 10.3912 13.6403 10.3449 13.6626 10.3012C13.6672 10.2941 13.671 10.2881 13.6742 10.2827C13.8366 10.273 14.014 10.2949 14.1776 10.2921C14.3614 10.2889 14.5327 10.2932 14.7156 10.3169C14.8335 10.3322 15.0675 10.317 15.1189 10.4498C15.1369 10.4966 15.1119 10.603 15.1081 10.6557Z" fill="#E0A652"/>
<path d="M18.318 10.313C18.2642 10.1781 18.13 10.1057 17.9967 10.0658C17.6243 9.95428 17.2181 9.9685 16.8345 9.96522C16.6992 9.96409 16.5284 9.9119 16.41 9.99635C16.0055 10.285 16.1289 11.3533 16.1424 11.779C16.148 11.9509 16.1748 12.1273 16.3239 12.2352C16.3496 12.2538 16.3747 12.2681 16.3996 12.2791C16.4029 12.2809 16.4057 12.2831 16.4091 12.2848C16.8111 12.4859 17.2836 12.4287 17.716 12.4317C18.0033 12.4337 18.1676 12.3646 18.2283 12.0734C18.3151 11.6566 18.2956 11.2459 18.3139 10.8244C18.3208 10.6627 18.3803 10.4692 18.318 10.313ZM18.0343 10.6557C18.0262 10.7669 18.0189 10.8742 18.0193 10.9861C18.0201 11.1812 18.0231 11.3734 18.0046 11.5672C17.9911 11.7071 18.0194 11.9457 17.959 12.0717C17.9271 12.1383 17.9462 12.1432 17.8645 12.1676C17.7934 12.1889 17.699 12.1762 17.6271 12.1764C17.4255 12.1771 17.2208 12.1919 17.0196 12.1857C16.898 12.182 16.7206 12.1599 16.5907 12.095C16.5072 12.0332 16.4529 11.9514 16.4465 11.813C16.438 11.6275 16.4388 11.4454 16.4574 11.2611C16.4777 11.0607 16.4786 10.8581 16.509 10.6586C16.5201 10.5857 16.5299 10.5116 16.5473 10.4399C16.5527 10.3912 16.5665 10.3449 16.5888 10.3012C16.5935 10.2941 16.5973 10.2881 16.6004 10.2827C16.7628 10.273 16.9402 10.2949 17.1038 10.2921C17.2876 10.2889 17.459 10.2932 17.6419 10.3169C17.7598 10.3322 17.9939 10.317 18.0451 10.4498C18.0632 10.4966 18.0381 10.603 18.0343 10.6557Z" fill="#E0A652"/>
<path d="M3.70665 13.2381C3.65286 13.1032 3.51872 13.0307 3.38532 12.9908C3.01298 12.8793 2.60668 12.8935 2.22316 12.8902C2.08789 12.8891 1.91707 12.837 1.79875 12.9214C1.39417 13.2101 1.51753 14.2784 1.53109 14.7041C1.53664 14.8759 1.56347 15.0523 1.71257 15.1603C1.73824 15.1789 1.7634 15.1932 1.78828 15.2042C1.79164 15.206 1.79437 15.2082 1.79777 15.2099C2.19973 15.4109 2.67223 15.3538 3.10473 15.3568C3.39192 15.3588 3.55626 15.2896 3.61696 14.9984C3.7038 14.5816 3.68427 14.171 3.70247 13.7494C3.7095 13.5878 3.76896 13.3942 3.70665 13.2381ZM3.42298 13.5807C3.41481 13.692 3.40755 13.7992 3.40802 13.9112C3.4088 14.1062 3.41181 14.2984 3.39321 14.4923C3.37978 14.6322 3.40802 14.8707 3.3477 14.9968C3.31583 15.0634 3.33485 15.0682 3.25317 15.0927C3.18208 15.1139 3.0877 15.1012 3.01575 15.1015C2.81422 15.1022 2.6095 15.117 2.40828 15.1108C2.28664 15.1071 2.10926 15.085 1.97941 15.0201C1.89586 14.9582 1.84156 14.8765 1.83515 14.7381C1.82672 14.5525 1.82742 14.3705 1.84609 14.1861C1.86633 13.9857 1.86726 13.7832 1.89765 13.5837C1.90875 13.5107 1.91855 13.4366 1.93594 13.365C1.94137 13.3162 1.95523 13.27 1.9775 13.2263C1.98215 13.2191 1.9859 13.2132 1.9891 13.2078C2.15152 13.198 2.32891 13.22 2.4925 13.2171C2.67629 13.214 2.84766 13.2182 3.03051 13.2419C3.14841 13.2573 3.38251 13.242 3.4338 13.3749C3.45188 13.4216 3.42681 13.528 3.42298 13.5807Z" fill="#E0A652"/>
<path d="M6.63321 13.2381C6.57938 13.1032 6.44524 13.0307 6.31184 12.9908C5.93949 12.8793 5.53324 12.8935 5.14972 12.8902C5.01445 12.8891 4.84355 12.837 4.72523 12.9214C4.32065 13.2101 4.44405 14.2784 4.45765 14.7041C4.46319 14.8759 4.48995 15.0523 4.63913 15.1603C4.66476 15.1789 4.68991 15.1932 4.71484 15.2042C4.71812 15.206 4.72089 15.2082 4.72429 15.2099C5.12625 15.4109 5.59875 15.3538 6.03121 15.3568C6.31848 15.3588 6.48282 15.2896 6.54344 14.9984C6.63032 14.5816 6.61075 14.171 6.62899 13.7494C6.63606 13.5878 6.69548 13.3942 6.63321 13.2381ZM6.3495 13.5807C6.34137 13.692 6.33411 13.7992 6.3345 13.9112C6.33528 14.1062 6.33833 14.2984 6.31973 14.4923C6.30633 14.6322 6.33458 14.8707 6.27422 14.9968C6.24235 15.0634 6.26141 15.0682 6.17969 15.0927C6.1086 15.1139 6.01422 15.1012 5.94227 15.1015C5.7407 15.1022 5.53601 15.117 5.3348 15.1108C5.2132 15.1071 5.03574 15.085 4.90589 15.0201C4.82234 14.9582 4.76808 14.8765 4.76171 14.7381C4.7532 14.5525 4.75394 14.3705 4.77257 14.1861C4.79288 13.9857 4.79378 13.7832 4.82421 13.5837C4.83527 13.5107 4.84507 13.4366 4.86249 13.365C4.86788 13.3162 4.88175 13.27 4.90402 13.2263C4.9087 13.2191 4.91246 13.2132 4.91566 13.2078C5.07804 13.198 5.25547 13.22 5.41906 13.2171C5.60285 13.214 5.77418 13.2182 5.95707 13.2419C6.07496 13.2573 6.30903 13.242 6.36032 13.3749C6.3784 13.4216 6.35333 13.528 6.3495 13.5807Z" fill="#E0A652"/>
<path d="M9.55994 13.2381C9.50615 13.1032 9.372 13.0307 9.23864 12.9908C8.86626 12.8793 8.46001 12.8935 8.07645 12.8902C7.94117 12.8891 7.77031 12.837 7.65203 12.9214C7.24742 13.2101 7.37082 14.2784 7.38437 14.7041C7.38992 14.8759 7.41675 15.0523 7.56586 15.1603C7.59156 15.1789 7.61668 15.1932 7.64156 15.2042C7.64492 15.206 7.64766 15.2082 7.65105 15.2099C8.05301 15.4109 8.52551 15.3538 8.95802 15.3568C9.24525 15.3588 9.40954 15.2896 9.47025 14.9984C9.55708 14.5816 9.53755 14.171 9.55576 13.7494C9.56279 13.5878 9.62224 13.3942 9.55994 13.2381ZM9.27626 13.5807C9.2681 13.692 9.26083 13.7992 9.2613 13.9112C9.26208 14.1062 9.26509 14.2984 9.2465 14.4923C9.23306 14.6322 9.2613 14.8707 9.20095 14.9968C9.16911 15.0634 9.18814 15.0682 9.10649 15.0927C9.0354 15.1139 8.94102 15.1012 8.86907 15.1015C8.66751 15.1022 8.46278 15.117 8.2616 15.1108C8.13996 15.1071 7.96254 15.085 7.8327 15.0201C7.74914 14.9582 7.69484 14.8765 7.68851 14.7381C7.67996 14.5525 7.68074 14.3705 7.69937 14.1861C7.71965 13.9857 7.72059 13.7832 7.75094 13.5837C7.76207 13.5107 7.77184 13.4366 7.78926 13.365C7.79465 13.3162 7.80852 13.27 7.83078 13.2263C7.83547 13.2191 7.83922 13.2132 7.84238 13.2078C8.00481 13.198 8.18219 13.22 8.34579 13.2171C8.52961 13.214 8.70094 13.2182 8.8838 13.2419C9.00173 13.2573 9.23579 13.242 9.28708 13.3749C9.30517 13.4216 9.28009 13.528 9.27626 13.5807Z" fill="#E0A652"/>
<path d="M12.4865 13.2381C12.4327 13.1032 12.2985 13.0307 12.1651 12.9908C11.7927 12.8793 11.3865 12.8935 11.003 12.8902C10.8677 12.8891 10.6968 12.837 10.5785 12.9214C10.1739 13.2101 10.2973 14.2784 10.3109 14.7041C10.3165 14.8759 10.3433 15.0523 10.4924 15.1603C10.518 15.1789 10.5432 15.1932 10.5681 15.2042C10.5714 15.206 10.5741 15.2082 10.5776 15.2099C10.9795 15.4109 11.452 15.3538 11.8845 15.3568C12.1718 15.3588 12.3361 15.2896 12.3967 14.9984C12.4836 14.5816 12.464 14.171 12.4823 13.7494C12.4893 13.5878 12.5488 13.3942 12.4865 13.2381ZM12.2028 13.5807C12.1946 13.692 12.1874 13.7992 12.1878 13.9112C12.1886 14.1062 12.1916 14.2984 12.173 14.4923C12.1596 14.6322 12.1878 14.8707 12.1275 14.9968C12.0956 15.0634 12.1147 15.0682 12.033 15.0927C11.9619 15.1139 11.8675 15.1012 11.7956 15.1015C11.594 15.1022 11.3893 15.117 11.1881 15.1108C11.0664 15.1071 10.889 15.085 10.7592 15.0201C10.6756 14.9582 10.6214 14.8765 10.615 14.7381C10.6065 14.5525 10.6073 14.3705 10.6259 14.1861C10.6462 13.9857 10.6471 13.7832 10.6774 13.5837C10.6886 13.5107 10.6983 13.4366 10.7158 13.365C10.7212 13.3162 10.735 13.27 10.7573 13.2263C10.762 13.2191 10.7657 13.2132 10.7689 13.2078C10.9313 13.198 11.1087 13.22 11.2723 13.2171C11.4561 13.214 11.6274 13.2182 11.8103 13.2419C11.9283 13.2573 12.1623 13.242 12.2136 13.3749C12.2317 13.4216 12.2066 13.528 12.2028 13.5807Z" fill="#E0A652"/>
<path d="M15.4132 13.2381C15.3594 13.1032 15.2253 13.0307 15.0919 12.9908C14.7195 12.8793 14.3132 12.8935 13.9297 12.8902C13.7944 12.8891 13.6235 12.837 13.5053 12.9214C13.1007 13.2101 13.2241 14.2784 13.2376 14.7041C13.2432 14.8759 13.2701 15.0523 13.4191 15.1603C13.4447 15.1789 13.4699 15.1932 13.4948 15.2042C13.4981 15.206 13.5009 15.2082 13.5043 15.2099C13.9063 15.4109 14.3788 15.3538 14.8113 15.3568C15.0985 15.3588 15.2628 15.2896 15.3235 14.9984C15.4103 14.5816 15.3908 14.171 15.409 13.7494C15.416 13.5878 15.4755 13.3942 15.4132 13.2381ZM15.1295 13.5807C15.1214 13.692 15.1141 13.7992 15.1146 13.9112C15.1153 14.1062 15.1184 14.2984 15.0998 14.4923C15.0863 14.6322 15.1146 14.8707 15.0542 14.9968C15.0223 15.0634 15.0414 15.0682 14.9597 15.0927C14.8886 15.1139 14.7942 15.1012 14.7223 15.1015C14.5207 15.1022 14.316 15.117 14.1149 15.1108C13.9932 15.1071 13.8158 15.085 13.686 15.0201C13.6024 14.9582 13.5481 14.8765 13.5417 14.7381C13.5333 14.5525 13.534 14.3705 13.5526 14.1861C13.5729 13.9857 13.5738 13.7832 13.6042 13.5837C13.6153 13.5107 13.6251 13.4366 13.6425 13.365C13.6479 13.3162 13.6618 13.27 13.684 13.2263C13.6887 13.2191 13.6924 13.2132 13.6956 13.2078C13.8581 13.198 14.0355 13.22 14.199 13.2171C14.3828 13.214 14.5542 13.2182 14.7371 13.2419C14.855 13.2573 15.0891 13.242 15.1403 13.3749C15.1584 13.4216 15.1334 13.528 15.1295 13.5807Z" fill="#E0A652"/>
<path d="M18.3398 13.2381C18.2859 13.1032 18.1518 13.0307 18.0184 12.9908C17.646 12.8793 17.2398 12.8935 16.8563 12.8902C16.721 12.8891 16.5501 12.837 16.4318 12.9214C16.0272 13.2101 16.1506 14.2784 16.1642 14.7041C16.1697 14.8759 16.1965 15.0523 16.3456 15.1603C16.3713 15.1789 16.3964 15.1932 16.4213 15.2042C16.4247 15.206 16.4274 15.2082 16.4308 15.2099C16.8328 15.4109 17.3053 15.3538 17.7378 15.3568C18.025 15.3588 18.1893 15.2896 18.25 14.9984C18.3369 14.5816 18.3173 14.171 18.3355 13.7494C18.3426 13.5878 18.402 13.3942 18.3398 13.2381ZM18.056 13.5807C18.0479 13.692 18.0407 13.7992 18.041 13.9112C18.0418 14.1062 18.0449 14.2984 18.0263 14.4923C18.0129 14.6322 18.0411 14.8707 17.9808 14.9968C17.9489 15.0634 17.968 15.0682 17.8862 15.0927C17.8151 15.1139 17.7208 15.1012 17.6488 15.1015C17.4473 15.1022 17.2426 15.117 17.0414 15.1108C16.9198 15.1071 16.7423 15.085 16.6124 15.0201C16.5289 14.9582 16.4746 14.8765 16.4683 14.7381C16.4597 14.5525 16.4605 14.3705 16.4791 14.1861C16.4994 13.9857 16.5003 13.7832 16.5307 13.5837C16.5418 13.5107 16.5516 13.4366 16.569 13.365C16.5745 13.3162 16.5883 13.27 16.6106 13.2263C16.6153 13.2191 16.619 13.2132 16.6222 13.2078C16.7846 13.198 16.962 13.22 17.1256 13.2171C17.3094 13.214 17.4807 13.2182 17.6636 13.2419C17.7815 13.2573 18.0156 13.242 18.0669 13.3749C18.0849 13.4216 18.0599 13.528 18.056 13.5807Z" fill="#E0A652"/>
<path d="M3.7281 16.1631C3.67431 16.0282 3.54021 15.9557 3.40685 15.9158C3.03446 15.8043 2.62821 15.8186 2.24465 15.8153C2.10941 15.8142 1.93851 15.762 1.82023 15.8464C1.41566 16.1351 1.53902 17.2034 1.55257 17.6291C1.55808 17.801 1.58492 17.9774 1.73402 18.0853C1.75968 18.1039 1.78484 18.1182 1.80972 18.1292C1.81308 18.1311 1.81582 18.1333 1.81922 18.135C2.22117 18.336 2.69368 18.2788 3.12618 18.2818C3.41337 18.2838 3.57771 18.2147 3.63841 17.9235C3.72525 17.5067 3.70572 17.096 3.72392 16.6744C3.73095 16.5128 3.7904 16.3193 3.7281 16.1631ZM3.44446 16.5057C3.43634 16.617 3.42903 16.7242 3.4295 16.8362C3.43028 17.0312 3.43333 17.2235 3.4147 17.4173C3.40126 17.5572 3.4295 17.7957 3.36919 17.9217C3.33731 17.9884 3.35634 17.9932 3.27466 18.0177C3.2036 18.0389 3.10923 18.0263 3.03727 18.0265C2.83571 18.0272 2.63098 18.042 2.42977 18.0358C2.30817 18.0321 2.13074 18.01 2.0009 17.9451C1.91734 17.8832 1.86304 17.8015 1.85668 17.6631C1.84816 17.4776 1.8489 17.2955 1.86754 17.1111C1.88777 16.9107 1.88875 16.7081 1.9191 16.5087C1.93023 16.4358 1.94 16.3616 1.95742 16.2899C1.96281 16.2412 1.97668 16.1949 1.99894 16.1512C2.00359 16.1441 2.00738 16.1381 2.01055 16.1328C2.17297 16.123 2.35035 16.145 2.51395 16.1421C2.69774 16.139 2.86911 16.1432 3.05196 16.1669C3.16989 16.1822 3.40399 16.167 3.45524 16.2999C3.47337 16.3467 3.44833 16.4531 3.44446 16.5057Z" fill="#E0A652"/>
<path d="M6.65465 16.1631C6.60082 16.0282 6.46676 15.9557 6.33332 15.9158C5.96098 15.8043 5.55472 15.8186 5.1712 15.8153C5.03593 15.8142 4.86503 15.762 4.74675 15.8464C4.34214 16.1351 4.46553 17.2034 4.47913 17.6291C4.48464 17.801 4.51139 17.9774 4.66058 18.0853C4.6862 18.1039 4.71136 18.1182 4.73628 18.1292C4.7396 18.1311 4.74233 18.1333 4.74573 18.135C5.14769 18.336 5.62023 18.2788 6.0527 18.2818C6.33992 18.2838 6.50426 18.2147 6.56489 17.9235C6.65176 17.5067 6.63223 17.096 6.65047 16.6744C6.6575 16.5128 6.71692 16.3193 6.65465 16.1631ZM6.37102 16.5057C6.36285 16.617 6.35559 16.7242 6.35602 16.8362C6.3568 17.0312 6.35981 17.2235 6.34125 17.4173C6.32781 17.5572 6.35606 17.7957 6.29571 17.9217C6.26383 17.9884 6.28289 17.9932 6.20117 18.0177C6.13008 18.0389 6.0357 18.0263 5.96375 18.0265C5.76219 18.0272 5.5575 18.042 5.35628 18.0358C5.23468 18.0321 5.05726 18.01 4.92737 17.9451C4.84386 17.8832 4.7896 17.8015 4.78319 17.6631C4.77468 17.4776 4.77542 17.2955 4.79401 17.1111C4.81433 16.9107 4.81523 16.7081 4.84566 16.5087C4.85671 16.4358 4.86651 16.3616 4.88394 16.2899C4.88937 16.2412 4.90319 16.1949 4.9255 16.1512C4.93015 16.1441 4.9339 16.1381 4.9371 16.1328C5.09952 16.123 5.27691 16.145 5.4405 16.1421C5.62429 16.139 5.79566 16.1432 5.97852 16.1669C6.09641 16.1822 6.33047 16.167 6.3818 16.2999C6.39989 16.3467 6.37481 16.4531 6.37102 16.5057Z" fill="#E0A652"/>
<path d="M9.58137 16.1631C9.52758 16.0282 9.39348 15.9557 9.26012 15.9158C8.88773 15.8043 8.48152 15.8186 8.09792 15.8153C7.96265 15.8142 7.79179 15.762 7.6735 15.8464C7.26893 16.1351 7.39229 17.2034 7.40584 17.6291C7.41135 17.801 7.43819 17.9774 7.58733 18.0853C7.61296 18.1039 7.63811 18.1182 7.663 18.1292C7.66635 18.1311 7.66909 18.1333 7.67249 18.135C8.07444 18.336 8.54695 18.2788 8.97945 18.2818C9.26664 18.2838 9.43098 18.2147 9.49164 17.9235C9.57852 17.5067 9.55899 17.096 9.57719 16.6744C9.58426 16.5128 9.64364 16.3193 9.58137 16.1631ZM9.2977 16.5057C9.28957 16.617 9.28227 16.7242 9.28273 16.8362C9.28352 17.0312 9.28652 17.2235 9.26793 17.4173C9.25449 17.5572 9.28273 17.7957 9.22242 17.9217C9.19055 17.9884 9.20957 17.9932 9.12793 18.0177C9.0568 18.0389 8.96242 18.0263 8.8905 18.0265C8.6889 18.0272 8.48421 18.042 8.28304 18.0358C8.1614 18.0321 7.98397 18.01 7.85413 17.9451C7.77057 17.8832 7.71628 17.8015 7.70995 17.6631C7.70139 17.4776 7.70214 17.2955 7.72077 17.1111C7.741 16.9107 7.74198 16.7081 7.77233 16.5087C7.78346 16.4358 7.79323 16.3616 7.81061 16.2899C7.81604 16.2412 7.82991 16.1949 7.85218 16.1512C7.85683 16.1441 7.86061 16.1381 7.86378 16.1328C8.0262 16.123 8.20359 16.145 8.36718 16.1421C8.55105 16.139 8.72234 16.1432 8.90519 16.1669C9.02312 16.1822 9.25723 16.167 9.30848 16.2999C9.32664 16.3467 9.3016 16.4531 9.2977 16.5057Z" fill="#E0A652"/>
<path d="M12.5082 16.1631C12.4544 16.0282 12.3203 15.9557 12.1868 15.9158C11.8145 15.8043 11.4082 15.8186 11.0247 15.8153C10.8894 15.8142 10.7185 15.762 10.6002 15.8464C10.1957 16.1351 10.3191 17.2034 10.3326 17.6291C10.3381 17.801 10.3649 17.9774 10.5141 18.0853C10.5397 18.1039 10.5649 18.1182 10.5898 18.1292C10.5931 18.1311 10.5958 18.1333 10.5993 18.135C11.0012 18.336 11.4737 18.2788 11.9062 18.2818C12.1934 18.2838 12.3577 18.2147 12.4184 17.9235C12.5053 17.5067 12.4857 17.096 12.504 16.6744C12.511 16.5128 12.5704 16.3193 12.5082 16.1631ZM12.2245 16.5057C12.2164 16.617 12.2091 16.7242 12.2095 16.8362C12.2103 17.0312 12.2133 17.2235 12.1947 17.4173C12.1813 17.5572 12.2096 17.7957 12.1492 17.9217C12.1173 17.9884 12.1364 17.9932 12.0547 18.0177C11.9836 18.0389 11.8892 18.0263 11.8173 18.0265C11.6157 18.0272 11.411 18.042 11.2098 18.0358C11.0882 18.0321 10.9107 18.01 10.7809 17.9451C10.6973 17.8832 10.6431 17.8015 10.6367 17.6631C10.6282 17.4776 10.6289 17.2955 10.6475 17.1111C10.6678 16.9107 10.6687 16.7081 10.6991 16.5087C10.7102 16.4358 10.72 16.3616 10.7375 16.2899C10.7429 16.2412 10.7567 16.1949 10.779 16.1512C10.7837 16.1441 10.7874 16.1381 10.7906 16.1328C10.953 16.123 11.1304 16.145 11.294 16.1421C11.4778 16.139 11.6491 16.1432 11.832 16.1669C11.9499 16.1822 12.184 16.167 12.2353 16.2999C12.2534 16.3467 12.2284 16.4531 12.2245 16.5057Z" fill="#E0A652"/>
<path d="M15.4344 16.1631C15.3806 16.0282 15.2465 15.9557 15.1131 15.9158C14.7408 15.8043 14.3345 15.8186 13.951 15.8153C13.8157 15.8142 13.6448 15.762 13.5265 15.8464C13.122 16.1351 13.2453 17.2034 13.2589 17.6291C13.2644 17.801 13.2912 17.9774 13.4403 18.0853C13.466 18.1039 13.4911 18.1182 13.516 18.1292C13.5194 18.1311 13.5221 18.1333 13.5255 18.135C13.9275 18.336 14.4 18.2788 14.8325 18.2818C15.1197 18.2838 15.284 18.2147 15.3447 17.9235C15.4315 17.5067 15.412 17.096 15.4302 16.6744C15.4372 16.5128 15.4967 16.3193 15.4344 16.1631ZM15.1508 16.5057C15.1426 16.617 15.1353 16.7242 15.1358 16.8362C15.1366 17.0312 15.1396 17.2235 15.121 17.4173C15.1076 17.5572 15.1358 17.7957 15.0755 17.9217C15.0436 17.9884 15.0626 17.9932 14.981 18.0177C14.9099 18.0389 14.8155 18.0263 14.7435 18.0265C14.542 18.0272 14.3373 18.042 14.1361 18.0358C14.0144 18.0321 13.837 18.01 13.7072 17.9451C13.6236 17.8832 13.5693 17.8015 13.5629 17.6631C13.5545 17.4776 13.5552 17.2955 13.5738 17.1111C13.5941 16.9107 13.595 16.7081 13.6254 16.5087C13.6365 16.4358 13.6463 16.3616 13.6637 16.2899C13.6691 16.2412 13.683 16.1949 13.7052 16.1512C13.7099 16.1441 13.7137 16.1381 13.7168 16.1328C13.8793 16.123 14.0567 16.145 14.2202 16.1421C14.404 16.139 14.5754 16.1432 14.7583 16.1669C14.8762 16.1822 15.1103 16.167 15.1615 16.2999C15.1797 16.3467 15.1546 16.4531 15.1508 16.5057Z" fill="#E0A652"/>
<path d="M18.3612 16.1631C18.3074 16.0282 18.1733 15.9557 18.0399 15.9158C17.6675 15.8043 17.2613 15.8186 16.8777 15.8153C16.7425 15.8142 16.5716 15.762 16.4533 15.8464C16.0487 16.1351 16.1721 17.2034 16.1857 17.6291C16.1912 17.801 16.218 17.9774 16.3671 18.0853C16.3928 18.1039 16.4179 18.1182 16.4428 18.1292C16.4461 18.1311 16.4489 18.1333 16.4523 18.135C16.8542 18.336 17.3267 18.2788 17.7592 18.2818C18.0465 18.2838 18.2108 18.2147 18.2715 17.9235C18.3583 17.5067 18.3388 17.096 18.357 16.6744C18.3641 16.5128 18.4235 16.3193 18.3612 16.1631ZM18.0776 16.5057C18.0694 16.617 18.0622 16.7242 18.0626 16.8362C18.0633 17.0312 18.0664 17.2235 18.0478 17.4173C18.0344 17.5572 18.0626 17.7957 18.0023 17.9217C17.9704 17.9884 17.9894 17.9932 17.9077 18.0177C17.8366 18.0389 17.7423 18.0263 17.6703 18.0265C17.4688 18.0272 17.2641 18.042 17.0629 18.0358C16.9413 18.0321 16.7638 18.01 16.6339 17.9451C16.5504 17.8832 16.4961 17.8015 16.4898 17.6631C16.4812 17.4776 16.482 17.2955 16.5006 17.1111C16.5209 16.9107 16.5218 16.7081 16.5522 16.5087C16.5633 16.4358 16.5731 16.3616 16.5905 16.2899C16.5959 16.2412 16.6097 16.1949 16.632 16.1512C16.6367 16.1441 16.6405 16.1381 16.6437 16.1328C16.8061 16.123 16.9835 16.145 17.147 16.1421C17.3309 16.139 17.5022 16.1432 17.685 16.1669C17.803 16.1822 18.037 16.167 18.0883 16.2999C18.1064 16.3467 18.0814 16.4531 18.0776 16.5057Z" fill="#E0A652"/>
</svg>
