<svg width="23" height="15" viewBox="0 0 23 15" fill="none" xmlns="http://www.w3.org/2000/svg">
<path d="M22.2913 7.80092V1.69146C22.2913 1.40504 22.0621 1.27382 21.8409 1.28685C21.8291 1.07824 21.6916 0.864162 21.427 0.839768C17.725 0.503718 14.0516 0.280807 10.3437 0.0486425C8.25927 -0.0821604 1.26994 0.0822895 1.20811 0.173557C1.16563 0.207204 1.10591 0.22571 1.07899 0.271554C0.173465 1.83194 -0.724069 12.0632 0.897297 13.2437C2.02321 14.0635 5.39717 13.8931 7.1262 13.9491C10.5994 14.0614 14.0819 13.9806 17.5564 14.0588C19.4465 14.1013 21.5894 13.9015 22.2316 11.8659C22.6232 10.6281 22.2913 9.07572 22.2913 7.80092ZM4.69983 0.83346C7.24817 0.534422 9.87685 0.899492 12.426 1.02399C15.2524 1.16236 18.0396 1.39284 20.8542 1.64604C19.5777 2.79634 17.9252 3.2838 16.5158 4.25662C15.9291 4.66123 15.3575 5.13523 14.7704 5.54573C14.6118 5.56129 14.4781 5.65844 14.4053 5.78841C13.3665 6.44705 12.2603 6.82137 10.9207 6.17577C9.53491 5.50745 8.31478 4.54305 6.9096 3.88146C5.5326 3.23333 3.85571 2.49941 2.91275 1.23638C3.41914 1.02441 4.02058 0.912951 4.69983 0.83346ZM0.982256 10.8687C0.652094 9.37518 0.964591 7.27434 0.993612 6.26493C1.02053 5.3123 1.08951 4.37102 1.26657 3.43269C1.42009 2.61465 1.73301 2.06536 2.17504 1.68515C2.99687 2.8241 4.32172 3.52985 5.549 4.1704C6.47597 4.65408 7.44795 5.0406 8.35348 5.56213C8.38124 5.57811 8.40858 5.5962 8.43549 5.6126C5.97632 7.36771 3.4305 9.03282 1.01422 10.8392C1.00286 10.8485 0.993612 10.859 0.982256 10.8687ZM19.907 12.9922C18.8518 13.3186 17.6136 13.2143 16.5268 13.1689C11.8507 12.9737 6.73295 13.7943 2.18261 12.4758C1.75614 12.3525 1.46257 12.0526 1.25606 11.6539C1.32167 11.6485 1.39023 11.6253 1.4592 11.5736C3.93773 9.72048 6.5542 8.01752 9.07268 6.21194C9.11853 6.17871 9.15344 6.14044 9.18162 6.09964C9.80409 6.53158 10.4261 6.9833 11.1378 7.22303C12.5417 7.69535 13.7437 7.22135 14.8764 6.49668C15.355 6.81843 15.6831 7.31598 16.0477 7.76643C16.5718 8.41414 17.259 8.95964 17.8377 9.56108C18.8114 10.573 19.5903 11.7229 20.7204 12.5679C20.5085 12.7424 20.2439 12.8875 19.907 12.9922ZM21.2352 11.8928C19.902 10.9339 18.9632 9.46645 17.8117 8.30773C17.1383 7.63058 16.4502 6.6115 15.633 5.97683C15.7752 5.87378 15.9165 5.7699 16.0578 5.66517C17.7574 4.40467 19.8683 3.69935 21.4291 2.28112C21.4186 4.70665 21.3513 7.14564 21.4716 9.56613C21.5133 10.3968 21.536 11.2329 21.2352 11.8928Z" fill="#E0A652"/>
</svg>
