<svg width="12" height="21" viewBox="0 0 12 21" fill="none" xmlns="http://www.w3.org/2000/svg">
<path d="M10.6102 0.509263L10.6551 0.644007L10.5146 10.1033C10.5197 10.276 10.5244 10.4353 10.5085 10.5919C10.4885 10.7894 10.4376 10.9467 10.3334 11.0697L10.2572 11.1597L10.2781 11.2757C10.2867 11.3236 10.276 11.3683 10.2581 11.3951C10.25 11.4073 10.2404 11.4161 10.2288 11.4225C10.2175 11.4287 10.1983 11.4359 10.1663 11.4372C9.84089 11.4412 9.51453 11.4457 9.18732 11.4502C8.51401 11.4595 7.83712 11.4689 7.15779 11.4744L6.90984 11.4765V11.7244C6.90984 11.8252 6.90979 11.9187 6.90594 12.003L6.9059 12.003L6.90577 12.0079C6.87043 13.3659 6.88188 14.7207 6.89845 16.071C6.90052 16.24 6.90268 16.4089 6.90483 16.5777C6.91988 17.7588 6.93489 18.9361 6.92226 20.1143C6.92202 20.1238 6.92094 20.13 6.92003 20.1336C6.91913 20.1339 6.91807 20.1341 6.91682 20.1343C6.91043 20.1355 6.90148 20.1357 6.89127 20.1337L6.79801 20.1161L6.71656 20.1649C6.70662 20.1708 6.69766 20.1767 6.6925 20.1801L6.69242 20.1801L6.68774 20.1831C6.31401 20.2984 5.90463 20.3055 5.46944 20.3131C5.36642 20.3149 5.26196 20.3168 5.15618 20.32C4.62628 20.3325 4.13332 20.3436 3.6397 20.2574L3.57884 20.2468L3.52358 20.2646C3.11446 17.9066 3.13206 15.4311 3.14936 12.9982C3.15144 12.7059 3.15352 12.4141 3.15485 12.1233V12.1222V12.1212V12.1202V12.1192V12.1182V12.1172V12.1162V12.1152V12.1142V12.1132V12.1122V12.1112V12.1102V12.1092V12.1082V12.1072V12.1062V12.1052V12.1042V12.1033V12.1023V12.1013V12.1003V12.0993V12.0983V12.0973V12.0963V12.0953V12.0943V12.0933V12.0923V12.0913V12.0903V12.0893V12.0883V12.0873V12.0863V12.0853V12.0843V12.0833V12.0824V12.0814V12.0804V12.0794V12.0784V12.0774V12.0764V12.0754V12.0744V12.0734V12.0724V12.0714V12.0704V12.0694V12.0684V12.0674V12.0664V12.0654V12.0644V12.0634V12.0624V12.0615V12.0605V12.0595V12.0585V12.0575V12.0565V12.0555V12.0545V12.0535V12.0525V12.0515V12.0505V12.0495V12.0485V12.0475V12.0465V12.0455V12.0445V12.0435V12.0425V12.0415V12.0406V12.0396V12.0386V12.0376V12.0366V12.0356V12.0346V12.0336V12.0326V12.0316V12.0306V12.0296V12.0286V12.0276V12.0266V12.0256V12.0246V12.0236V12.0226V12.0216V12.0206V12.0197V12.0187V12.0177V12.0167V12.0157V12.0147V12.0137V12.0127V12.0117V12.0107V12.0097V12.0087V12.0077V12.0067V12.0057V12.0047V12.0037V12.0027V12.0017V12.0007V11.9997V11.9988V11.9978V11.9968V11.9958V11.9948V11.9938V11.9928V11.9918V11.9908V11.9898V11.9888V11.9878V11.9868V11.9858V11.9848V11.9838V11.9828V11.9818V11.9808V11.9798V11.9788V11.9779V11.9769V11.9759V11.9749V11.9739V11.9729V11.9719V11.9709V11.9699V11.9689V11.9679V11.9669V11.9659V11.9649V11.9639V11.9629V11.9619V11.9609V11.9599V11.9589V11.9579V11.957V11.956V11.955V11.954V11.953V11.952V11.951V11.95V11.949V11.948V11.947V11.946V11.945V11.944V11.943V11.942V11.941V11.94V11.939V11.938V11.937V11.9361V11.9351V11.9341V11.9331V11.9321V11.9311V11.9301V11.9291V11.9281V11.9271V11.9261V11.9251V11.9241V11.9231V11.9221V11.9211V11.9201V11.9191V11.9181V11.9171V11.9161V11.9152V11.9142V11.9132V11.9122V11.9112V11.9102V11.9092V11.9082V11.9072V11.9062V11.9052V11.9042V11.9032V11.9022V11.9012V11.9002V11.8992V11.8982V11.8972V11.8962V11.8952V11.8943V11.8933V11.8923V11.8913V11.8903V11.8893V11.8883V11.8873V11.8863V11.8853V11.8843V11.8833V11.8823V11.8813V11.8803V11.8793V11.8783V11.8773V11.8763V11.8753V11.8743V11.8733V11.8724V11.8714V11.8704V11.8694V11.8684V11.8674V11.8664V11.8654V11.8644V11.8634V11.8624V11.8614V11.8604V11.8594V11.8584V11.8574V11.8564V11.8554V11.8544V11.8534V11.8524V11.8515V11.8505V11.8495V11.8485V11.8475V11.8465V11.8455V11.8445V11.8435V11.8425V11.8415V11.8405V11.8395V11.8385V11.8375V11.8365V11.8355V11.8345V11.8335V11.8325V11.8315V11.8305V11.8296V11.8286V11.8276V11.8266V11.8256V11.8246V11.8236V11.8226V11.8216V11.8206V11.8196V11.8186V11.8176V11.8166V11.8156V11.8146V11.8136V11.8126V11.8116V11.8106V11.8096V11.8086V11.8077V11.8067V11.8057V11.8047V11.8037V11.8027V11.8017V11.8007V11.7997V11.7987V11.7977V11.7967V11.7957V11.7947V11.7937V11.7927V11.7917V11.7907V11.7897V11.7887V11.7877V11.7867V11.7858V11.7848V11.7838V11.7828V11.7818V11.7808V11.7798V11.7788V11.7778V11.7768V11.7758V11.7748V11.7738V11.7728V11.7718V11.7708V11.7698V11.7688V11.7678V11.7668V11.7658V11.7648V11.7639V11.7629V11.7619V11.7609V11.7599V11.7589V11.7579V11.7569V11.7559V11.7549V11.7539V11.7529V11.7519V11.7509V11.7499V11.7489V11.7479V11.7469V11.7459V11.7449V11.7439V11.7429V11.742V11.741V11.74V11.739V11.738V11.737V11.736V11.735V11.734V11.733V11.732V11.731V11.73V11.729V11.728V11.727V11.726V11.725V11.724V11.723V11.722V11.721V11.7201V11.7191V11.7181V11.7171V11.7161V11.7151V11.7141V11.7131V11.7121V11.7111V11.7101V11.7091V11.7081V11.7071V11.7061V11.7051V11.7041V11.7031V11.7021V11.7011V11.7001V11.6991V11.6982V11.6972V11.6962V11.6952V11.6942V11.6932V11.6922V11.6912V11.6902V11.6892V11.6882V11.6872V11.6862V11.6852V11.6842V11.6832V11.6822V11.6812V11.6802V11.6792V11.6782V11.6772V11.6762V11.6753V11.6743V11.6733V11.6723V11.6713V11.6703V11.6693V11.6683V11.6673V11.6663V11.6653V11.6643V11.6633V11.6623V11.6613V11.6603V11.6593V11.6583V11.6573V11.6563V11.6553V11.6543V11.6533V11.6524V11.6514V11.6504V11.6494V11.6484V11.6474V11.6464V11.6454V11.6444V11.6434V11.6424V11.6414V11.6404V11.6394V11.6384V11.6374V11.6364V11.6354V11.6344V11.6334V11.6324V11.6314V11.6304V11.6295V11.6285V11.6275V11.6265V11.6255V11.6245V11.6235V11.6225V11.6215V11.6205V11.6195V11.6185V11.6175V11.6165V11.6155V11.6145V11.6135V11.6125V11.3783L2.92115 11.3631C2.10821 11.3099 1.29996 11.2284 0.504351 11.1147L0.49614 11.0196L0.396086 10.9529C0.344335 10.9184 0.298154 10.838 0.279774 10.6594C0.267626 10.5414 0.270284 10.4304 0.273083 10.3134C0.274648 10.2481 0.276256 10.1809 0.275353 10.1095L0.275331 10.1083C0.272883 9.97004 0.2682 9.8332 0.263519 9.69642C0.255712 9.4683 0.24791 9.24033 0.250486 9.00615C0.254495 8.6416 0.284489 8.29722 0.374447 7.99197C0.377142 7.99008 0.38132 7.98743 0.387458 7.98416L0.426252 7.96346L0.451526 7.93537C0.453847 7.93474 0.457627 7.93392 0.463191 7.9333L0.463192 7.93331L0.465418 7.93305C1.28128 7.83465 2.12327 7.77705 2.9754 7.74822L3.20443 7.74047L3.2166 7.51163C3.25768 6.73866 3.3275 5.96868 3.44594 5.21716L3.446 5.21678C3.99166 1.71957 6.97412 -0.390117 10.5118 0.424796C10.5473 0.433601 10.5673 0.447176 10.5794 0.458712C10.5923 0.471038 10.603 0.487585 10.6102 0.509263ZM10.5086 9.86076C10.5092 9.88704 10.5098 9.91336 10.5104 9.93969L10.8339 0.724283C10.8338 0.724551 10.8338 0.72482 10.8338 0.725088C10.7881 1.63959 10.7388 2.53013 10.5183 3.38832L10.5067 3.43335L10.5121 3.47954C10.5201 3.54809 10.501 3.61948 10.4697 3.66338C10.4554 3.68348 10.4417 3.69362 10.4313 3.69859C10.4223 3.70289 10.4079 3.70728 10.3825 3.70397L10.3502 3.95186L10.3829 3.70403C9.8334 3.63143 9.35611 3.69921 8.94681 3.88834C8.5383 4.07712 8.21384 4.37922 7.95705 4.75007C7.4488 5.48409 7.191 6.50873 7.05696 7.5536L7.02291 7.81898L7.28999 7.83496C8.25625 7.89281 9.21474 7.96715 10.149 8.04976C10.18 8.05283 10.1918 8.06276 10.1968 8.06777C10.2038 8.07485 10.2118 8.08802 10.215 8.10869L10.2319 8.21713L10.3232 8.27806C10.3295 8.28226 10.3325 8.28545 10.3337 8.28702L10.3352 8.2894C10.3356 8.29023 10.3363 8.29178 10.3371 8.29443L10.337 8.29446L10.339 8.30107C10.4853 8.77647 10.4968 9.31318 10.5086 9.86076Z" stroke="#E0A652" stroke-width="0.5"/>
</svg>
