<svg width="21" height="20" viewBox="0 0 21 20" fill="none" xmlns="http://www.w3.org/2000/svg">
<path d="M11.4418 1.13359H11.4501H11.4502L11.4506 1.13359L11.4521 1.13359L11.4583 1.13358L11.4831 1.1335L11.5779 1.13287C11.6597 1.13216 11.7765 1.13073 11.9161 1.12786C12.1957 1.12212 12.5652 1.11066 12.928 1.08784C13.2516 1.06749 13.561 1.0386 13.7948 0.998638C13.7264 0.97218 13.6476 0.944506 13.5583 0.916087C13.1866 0.797897 12.6567 0.674403 11.9956 0.571725C10.6744 0.366543 8.84656 0.247172 6.74395 0.412084C4.64149 0.576979 3.1038 1.03317 2.07883 1.77141C1.06729 2.49997 0.533806 3.51833 0.463389 4.87384C0.437538 5.3715 0.410602 5.82693 0.384919 6.26116C0.263374 8.31617 0.169896 9.89663 0.352332 13.2343C0.362215 13.3928 0.366595 13.5667 0.371296 13.7532C0.40283 15.0049 0.448814 16.8301 2.26741 18.4638C2.50227 18.6748 2.88335 18.8684 3.39921 19.0366C3.91079 19.2035 4.5349 19.339 5.23784 19.4453C6.64344 19.6578 8.34207 19.75 10.0398 19.75C11.7367 19.75 13.4256 19.6579 14.8099 19.5041C15.5022 19.4272 16.1154 19.3352 16.6138 19.2323C17.1178 19.1283 17.4856 19.0168 17.6994 18.9079C19.5242 17.9783 20.3006 15.8971 20.3743 12.2543C20.3813 11.9051 20.3907 11.5474 20.4001 11.1845C20.4407 9.63274 20.4837 7.98443 20.3612 6.4858C20.2089 4.62306 19.8049 3.07806 18.9009 2.24227C17.9538 1.36672 16.7955 0.808708 15.8899 0.511341C15.6269 0.424981 15.3884 0.361681 15.1858 0.319015C15.1877 0.320188 15.1896 0.321365 15.1915 0.322542L15.2012 0.328508C15.5498 0.542977 16.0175 0.831449 16.5061 1.19735C17.4784 1.9254 18.5673 2.98414 18.9781 4.43195C19.3749 5.82998 19.6813 8.33082 19.6813 10.738C19.6813 11.9436 19.6045 13.135 19.4207 14.1603C19.2384 15.1773 18.9451 16.065 18.4886 16.6331C17.6071 17.73 16.4801 18.2423 15.0704 18.4711C13.7592 18.6839 12.1796 18.6546 10.3027 18.6198C10.1824 18.6175 10.0609 18.6153 9.9382 18.613C7.89311 18.5762 6.22454 18.5215 4.96631 18.1983C3.69016 17.8705 2.79615 17.2555 2.35659 16.0838M11.4418 1.13359L2.59048 15.9956M11.4418 1.13359L11.4335 1.13414L11.4501 1.38359M11.4418 1.13359L11.4501 1.38359M2.35659 16.0838C2.35652 16.0837 2.35646 16.0835 2.3564 16.0833L2.59048 15.9956M2.35659 16.0838C2.35664 16.084 2.35668 16.0841 2.35673 16.0842L2.59048 15.9956M2.35659 16.0838C2.14001 15.5126 1.99017 14.5863 1.89523 13.5093C1.79959 12.4243 1.75782 11.1619 1.76711 9.90385C1.7764 8.64583 1.8368 7.38815 1.94642 6.31261C2.05524 5.245 2.21474 4.33239 2.43179 3.77992C2.8731 2.65656 3.71167 2.05855 4.75382 1.73227C5.78019 1.41093 7.02577 1.34624 8.31309 1.29106M2.59048 15.9956C1.77665 13.85 1.85064 5.9429 2.66448 3.87133C3.4783 1.79975 5.73484 1.65179 8.32427 1.54081M8.31309 1.29106C8.31293 1.29107 8.31276 1.29108 8.31259 1.29109L8.32427 1.54081M8.31309 1.29106C8.31325 1.29106 8.31341 1.29105 8.31357 1.29104L8.32427 1.54081M8.31309 1.29106C9.59798 1.23098 10.3788 1.1917 10.8382 1.16746C11.0679 1.15534 11.2171 1.14698 11.3088 1.14167L11.4059 1.13589L11.4273 1.13454L11.4322 1.13423L11.4333 1.13416L11.4335 1.13414L11.4335 1.13414L11.4501 1.38359M8.32427 1.54081C10.8953 1.42059 11.4501 1.38359 11.4501 1.38359M11.4501 1.38359C11.4501 1.38359 14.4835 1.38359 14.2986 1.01366L11.4501 1.38359ZM14.1137 0.913995C14.1151 0.912956 14.1159 0.91247 14.1159 0.912488C14.116 0.912507 14.1153 0.913024 14.1137 0.913995Z" stroke="#E0A652" stroke-width="0.5"/>
<path d="M13.9481 7.02834C14.0741 7.15589 14.1763 7.27107 14.2535 7.36312C14.2502 7.36051 14.2468 7.3579 14.2434 7.35527C14.0971 7.24258 13.9232 7.10854 13.734 6.9769C13.1873 6.59665 12.4466 6.1864 11.5446 6.14631C10.6975 6.10866 9.66354 6.17155 8.77694 6.63715C7.87346 7.11161 7.15436 7.98771 6.92133 9.50237L7.16843 9.54039L6.92133 9.50237C6.68613 11.0312 7.2551 12.3222 8.31116 13.0565C9.36393 13.7884 10.862 13.9412 12.443 13.2857L12.3473 13.0547L12.4431 13.2857C13.2455 12.9529 13.7762 12.4786 14.1096 11.9394C14.4413 11.403 14.568 10.8183 14.5901 10.2766C14.6193 9.55931 14.4649 8.89762 14.3432 8.48959C14.5851 8.72634 14.8788 9.21476 14.9465 10.0778C15.0164 10.969 14.7972 12.0039 14.1216 12.8528C13.4499 13.6966 12.3063 14.3828 10.4757 14.5443C8.72153 14.6991 7.01331 13.4481 6.25429 11.7592C5.87779 10.9214 5.74407 9.99225 5.95022 9.09865C6.15559 8.20842 6.70242 7.33475 7.72044 6.60885L7.72065 6.6087C8.74848 5.87422 9.67503 5.57936 10.4817 5.5371C11.2895 5.49478 11.9949 5.70482 12.5804 6.00773C13.1673 6.31133 13.6306 6.7068 13.9481 7.02834ZM14.0579 8.30779C14.0578 8.30771 14.059 8.30772 14.0617 8.30806L14.0579 8.30779ZM14.578 7.8233C14.578 7.82332 14.5779 7.82293 14.5777 7.82216C14.5778 7.82224 14.5778 7.82231 14.5778 7.82238C14.5779 7.82298 14.578 7.82328 14.578 7.8233Z" stroke="#E0A652" stroke-width="0.5"/>
<path d="M16.6905 4.4449C16.6915 4.44614 16.6924 4.44735 16.6932 4.44854C16.6939 4.45171 16.6947 4.45506 16.6954 4.45857C16.7029 4.49337 16.7125 4.54378 16.7204 4.60395C16.7366 4.72703 16.7442 4.87831 16.7202 5.01697C16.6961 5.15613 16.6452 5.25602 16.5679 5.31658C16.494 5.37444 16.3526 5.43021 16.0724 5.39019L16.0371 5.63768L16.0724 5.39019C15.5264 5.31219 15.1543 4.93031 15.0202 4.54316C14.9531 4.3496 14.9515 4.17244 14.9982 4.04103C15.0417 3.91843 15.1319 3.81881 15.2968 3.76806C15.6634 3.65526 16.0029 3.80305 16.28 4.02143C16.416 4.12853 16.5267 4.24522 16.6037 4.33596C16.6419 4.38102 16.6712 4.41891 16.6905 4.4449Z" stroke="#E0A652" stroke-width="0.5"/>
<path d="M2.40636 5.67754C2.29223 6.81881 2.2343 7.81008 2.2075 8.65117C2.1891 8.15938 2.18536 7.6562 2.20212 7.15342C2.25726 5.49913 2.42239 4.46986 2.63497 3.7834C2.84448 3.10688 3.1015 2.75801 3.36046 2.46452C3.47855 2.33069 3.64084 2.21864 3.82145 2.12607C3.7996 2.15035 3.77768 2.17526 3.7557 2.20082C3.18093 2.86892 2.57788 3.9623 2.40636 5.67754Z" stroke="#E0A652" stroke-width="0.5"/>
<path d="M18.6174 8.03044C18.4871 5.25616 18.0394 3.73602 17.6045 2.90042C17.5413 2.77894 17.4782 2.67166 17.4162 2.57695C17.7178 2.78788 18.0939 3.19378 18.4763 3.97228C18.7169 4.46213 18.9 5.22643 19.0263 6.15321C19.1518 7.07391 19.2184 8.13292 19.2368 9.1979C19.2736 11.3344 19.116 13.4622 18.8643 14.5229C18.6198 15.5532 18.2189 16.0953 17.8972 16.3791C18.2015 15.5678 18.8539 13.0636 18.6174 8.03044Z" stroke="#E0A652" stroke-width="0.5"/>
</svg>
