<svg width="12" height="21" viewBox="0 0 12 21" fill="none" xmlns="http://www.w3.org/2000/svg">
<path d="M11.1854 0.908205C11.0271 0.490136 10.6673 0.320533 10.2414 0.289811C9.71615 0.251804 9.18486 0.252121 8.65831 0.245945C6.92032 0.225675 5.17852 0.328609 3.43973 0.39512C2.8945 0.41729 2.34087 0.453713 1.80546 0.563931C1.38976 0.649445 1.01841 0.854838 0.83123 1.2509C0.634547 1.66691 0.584347 2.16511 0.518153 2.61548C0.44214 3.13205 0.389248 3.65131 0.348867 4.17184C0.26652 5.23285 0.210935 6.29655 0.159627 7.35946C0.0555846 9.51537 -0.000158023 11.6743 3.3648e-07 13.8327C0.000158696 14.9053 0.0126691 15.9777 0.0376899 17.0498C0.0503587 17.5928 0.0661946 18.1355 0.0851978 18.6782C0.101192 19.1291 0.0812388 19.6171 0.264778 20.0392C0.644841 20.9125 1.74227 20.8751 2.54326 20.9223C3.59571 20.9844 4.65055 21.0093 5.70491 20.9969C6.78634 20.9842 7.86715 20.9323 8.94478 20.8416C9.39199 20.8039 9.90682 20.81 10.3089 20.583C10.65 20.3904 10.8518 20.0412 10.9461 19.6705C11.0527 19.2518 11.047 18.8109 11.059 18.3821C11.0738 17.852 11.0875 17.322 11.1002 16.792C11.126 15.7183 11.1479 14.6445 11.1664 13.5706C11.2039 11.3956 11.2285 9.22034 11.247 7.04511C11.256 5.98458 11.2636 4.9242 11.2709 3.86367C11.2747 3.31986 11.2782 2.77606 11.2817 2.23225C11.2845 1.80294 11.3411 1.31899 11.1854 0.908205ZM10.7816 2.72174C10.7757 3.7278 10.7697 4.73386 10.7624 5.73991C10.7335 9.80485 10.6886 13.8699 10.5814 17.9338C10.5697 18.3731 10.5819 18.8217 10.5273 19.2586C10.4851 19.5961 10.3819 19.9842 10.0625 20.1612C9.69937 20.3627 9.18486 20.3354 8.7831 20.3684C8.27112 20.4103 7.75851 20.4434 7.24527 20.4678C6.24602 20.5152 5.24535 20.5291 4.24515 20.5096C3.73159 20.4995 3.21818 20.4807 2.70526 20.4529C2.26929 20.4294 1.81195 20.432 1.38438 20.3351C0.979138 20.2434 0.714519 20.0255 0.625204 19.61C0.527179 19.1539 0.557268 18.654 0.542065 18.1898C0.508968 17.1857 0.486798 16.1812 0.475713 15.1767C0.453226 13.1542 0.472229 11.131 0.535889 9.10933C0.598916 7.11178 0.646899 5.09096 0.894099 3.10624C0.953959 2.62609 1.01794 2.12995 1.1527 1.66406C1.27685 1.23474 1.56048 1.0531 1.98393 0.969965C2.38854 0.890469 2.79663 0.850245 3.20488 0.800521C3.62073 0.749845 4.06177 0.779617 4.48253 0.775183C5.36744 0.765998 6.25235 0.756972 7.13727 0.747787C8.10326 0.737652 9.06894 0.733059 10.0348 0.775658C10.2126 0.783418 10.4402 0.771541 10.5892 0.888093C10.7211 0.991344 10.7591 1.18233 10.7761 1.3391C10.8248 1.79264 10.7843 2.2663 10.7816 2.72174Z" fill="#E0A652"/>
<path d="M9.58339 1.76969C9.13333 1.73723 8.67804 1.73754 8.22688 1.73216C6.73782 1.71474 5.2456 1.80294 3.75575 1.85995C3.28875 1.87896 2.8143 1.91015 2.35554 2.00454C1.99954 2.07786 1.68124 2.25379 1.52098 2.59316C1.35249 2.94963 1.30941 3.37641 1.25272 3.76217C1.18763 4.20478 1.14234 4.64977 1.10766 5.09572C1.03719 6.0047 0.989527 6.91622 0.945503 7.82679C0.856346 9.67389 0.80868 11.5235 0.808838 13.3729C0.808838 14.2917 0.819607 15.2106 0.840985 16.1291C0.851912 16.5942 0.865531 17.0593 0.881842 17.5243C0.895461 17.9105 0.878358 18.3286 1.03577 18.6901C1.3612 19.4383 2.30138 19.4065 2.98771 19.4469C3.88957 19.4999 4.79317 19.5213 5.69661 19.5107C6.62301 19.4999 7.5491 19.4554 8.47234 19.3777C8.85557 19.3454 9.2966 19.3506 9.64103 19.1561C9.93336 18.9913 10.1061 18.692 10.1871 18.3743C10.2784 18.0156 10.2735 17.638 10.2838 17.2706C10.2965 16.8165 10.3082 16.3624 10.3191 15.9082C10.3413 14.9883 10.3598 14.0682 10.3757 13.1483C10.408 11.2847 10.4289 9.42115 10.4449 7.55742C10.4526 6.64891 10.4591 5.7404 10.4653 4.83173C10.4685 4.36584 10.4715 3.89994 10.4746 3.43405C10.477 3.06618 10.5253 2.65144 10.392 2.29956C10.2564 1.94135 9.94809 1.79613 9.58339 1.76969ZM10.0461 3.85323C10.041 4.71518 10.0358 5.57729 10.0296 6.43924C10.0048 9.92188 9.96646 13.4047 9.87445 16.8864C9.86463 17.2628 9.87493 17.6471 9.82821 18.0215C9.79195 18.3107 9.70358 18.6432 9.42994 18.7949C9.11876 18.9674 8.67789 18.9441 8.33377 18.9723C7.89527 19.0082 7.45598 19.0367 7.01622 19.0575C6.16013 19.098 5.30277 19.1101 4.44588 19.0933C4.0058 19.0847 3.56588 19.0684 3.12643 19.0448C2.75302 19.0246 2.36124 19.0268 1.99495 18.9438C1.64767 18.8652 1.42106 18.6785 1.34457 18.3225C1.26048 17.9317 1.28629 17.5035 1.27315 17.1057C1.2448 16.2455 1.22596 15.385 1.21646 14.5243C1.19714 12.7914 1.21345 11.058 1.26792 9.32598C1.32192 7.61458 1.3631 5.88324 1.57482 4.18277C1.62613 3.77135 1.68092 3.34616 1.79637 2.94709C1.90279 2.57922 2.14571 2.42371 2.50867 2.35245C2.85532 2.28436 3.20482 2.24999 3.55464 2.20739C3.91094 2.16385 4.28879 2.18934 4.64938 2.1857C5.40744 2.17778 6.16567 2.16986 6.92374 2.1621C7.75132 2.15339 8.57875 2.14944 9.40618 2.18602C9.55852 2.19267 9.75346 2.18253 9.8811 2.28246C9.99433 2.37082 10.027 2.53441 10.0414 2.66885C10.0832 3.05731 10.0483 3.46303 10.0461 3.85323Z" fill="#E0A652"/>
<path d="M7.18085 9.04235C7.08283 8.8463 6.96628 8.65595 6.81742 8.49395C6.70862 8.3755 6.46238 8.12339 6.28232 8.19829C6.22341 8.22284 6.17701 8.26971 6.13346 8.31627C5.90004 8.56584 5.69734 8.84234 5.51048 9.12786C5.41863 9.26849 5.33042 9.41164 5.24396 9.55575C5.1776 9.66597 5.07055 9.80643 5.24792 9.87944C5.64286 10.0419 6.13014 10.705 5.90131 11.1319C5.6492 11.6019 4.97712 11.6797 4.64932 11.2595C4.59848 11.1941 4.47259 11.199 4.42096 11.2595C4.14415 11.5837 3.86734 11.908 3.59052 12.2322C3.49757 12.3413 3.32955 12.4732 3.30484 12.6232C3.28172 12.764 3.39289 12.8549 3.49297 12.9334C3.76646 13.1478 4.12784 13.3314 4.46039 13.4321C4.83586 13.5458 5.23746 13.494 5.60533 13.3768C6.98781 12.9367 7.65229 11.5408 7.49694 10.1542C7.45371 9.76779 7.35537 9.39106 7.18085 9.04235ZM5.50668 9.68386C5.653 9.48243 5.80107 9.28226 5.94739 9.08099C6.02958 8.9676 6.11541 8.85643 6.19601 8.7421C6.25033 8.68287 6.30671 8.62507 6.36609 8.56901C6.57956 8.70283 6.7441 8.92215 6.8673 9.16539C6.79667 9.21607 6.73824 9.28606 6.676 9.34988C6.56863 9.46042 6.46523 9.57475 6.36609 9.69273C6.25635 9.82322 6.09783 9.98728 6.01184 10.1604C5.87454 9.96337 5.69544 9.79424 5.50668 9.68386ZM4.14462 12.9565C4.0238 12.8943 3.89758 12.8319 3.79117 12.7456C3.73606 12.7009 3.71119 12.6624 3.7066 12.6265C3.69567 12.5405 3.80209 12.4696 3.89236 12.3649C4.10947 12.1134 4.32658 11.8619 4.54369 11.6105C4.67117 11.7191 4.81908 11.7897 4.97395 11.8252C4.84837 11.9714 4.73641 12.1361 4.6254 12.2808C4.45738 12.5004 4.29253 12.7223 4.15492 12.9617C4.15143 12.96 4.14811 12.9583 4.14462 12.9565ZM7.03833 11.5582C6.8578 12.1169 6.49611 12.5888 5.9808 12.8766C5.72109 13.0216 5.4294 13.125 5.13421 13.1676C4.83808 13.2105 4.576 13.1515 4.31613 13.0384C4.47575 12.8452 4.62461 12.6434 4.7825 12.4487C4.94371 12.2498 5.15163 12.06 5.30207 11.848C5.63875 11.82 5.96624 11.6369 6.15769 11.3161C6.33791 11.0139 6.28549 10.6489 6.11525 10.329C6.17226 10.275 6.21724 10.2082 6.2687 10.1452C6.36593 10.0262 6.46491 9.9081 6.56658 9.79313C6.6608 9.68656 6.75851 9.5833 6.85954 9.48322C6.89565 9.44759 6.93175 9.41624 6.96501 9.38393C7.03485 9.56018 7.086 9.73929 7.1202 9.89987C7.23628 10.4443 7.20967 11.0283 7.03833 11.5582Z" fill="#E0A652"/>
</svg>
