<svg width="21" height="24" viewBox="0 0 21 24" fill="none" xmlns="http://www.w3.org/2000/svg">
<path d="M20.077 6.03841C18.7906 5.98887 17.6056 5.54137 16.6432 4.81548C15.4719 3.93236 14.6297 2.63656 14.3323 1.14234C14.2743 0.851529 14.2374 0.553679 14.2225 0.25H10.9375V10.3224V10.3226L10.933 15.9765L20.077 6.03841ZM20.077 6.03841V6.80996V9.29987C18.9049 9.26973 17.7666 9.0244 16.6887 8.56963C15.9463 8.25618 15.2548 7.85248 14.6224 7.36465L14.2186 7.05309L14.2197 7.56317L14.2392 16.0048C14.2392 16.0051 14.2392 16.0053 14.2392 16.0056C14.2311 17.8397 13.506 19.5623 12.1918 20.8612L12.1917 20.8612C11.1217 21.919 9.76663 22.5913 8.29749 22.8089C7.95203 22.86 7.6004 22.8863 7.24476 22.8863C5.67066 22.8863 4.17789 22.3766 2.95698 21.437C2.72714 21.26 2.50726 21.0681 2.29776 20.8612C0.873446 19.4535 0.139822 17.5475 0.263432 15.5407L20.077 6.03841ZM8.08412 12.4027C7.81814 12.3414 7.54107 12.3086 7.25608 12.3086C5.20754 12.3086 3.54902 13.9802 3.57963 16.0318C3.59908 17.3456 4.31682 18.4923 5.37266 19.1238C5.86921 19.4208 6.44105 19.605 7.05138 19.6386C7.52888 19.6648 7.98778 19.5983 8.41253 19.458L8.33412 19.2206L8.41254 19.458C9.87591 18.9745 10.9329 17.5997 10.933 15.9767L8.08412 12.4027ZM8.08412 12.4027V9.91057V9.11527C7.80746 9.08264 7.52731 9.06579 7.24476 9.06579C5.22514 9.06579 3.33796 9.90465 1.98809 11.4167L1.98808 11.4167C0.968873 12.5582 0.357715 14.0144 0.263434 15.5406L8.08412 12.4027Z" stroke="#E0A652" stroke-width="0.5"/>
</svg>
